<?xml version="1.0" encoding="UTF-8"?>
<svg xmlns="http://www.w3.org/2000/svg" xmlns:xlink="http://www.w3.org/1999/xlink" viewBox="0 0 170 55">
  <defs>
    <style>
      .cls-1 {
        fill: url(#linear-gradient-15);
      }

      .cls-2 {
        fill: url(#linear-gradient-13);
      }

      .cls-3 {
        fill: url(#linear-gradient-2);
      }

      .cls-4 {
        fill: url(#linear-gradient-10);
      }

      .cls-5 {
        fill: url(#linear-gradient-12);
      }

      .cls-6 {
        fill: #fff;
      }

      .cls-7 {
        fill: url(#linear-gradient-4);
      }

      .cls-8 {
        fill: url(#linear-gradient-3);
      }

      .cls-9 {
        fill: url(#linear-gradient-5);
      }

      .cls-10 {
        fill: url(#New_Gradient_Swatch_2-2);
      }

      .cls-11, .cls-12 {
        mix-blend-mode: screen;
        opacity: .25;
      }

      .cls-13 {
        isolation: isolate;
      }

      .cls-14 {
        fill: url(#linear-gradient-8);
      }

      .cls-15 {
        fill: url(#New_Gradient_Swatch_2);
      }

      .cls-16 {
        fill: #174880;
      }

      .cls-17 {
        fill: url(#linear-gradient-14);
      }

      .cls-12 {
        fill: url(#linear-gradient-18);
      }

      .cls-18 {
        fill: url(#linear-gradient-17);
      }

      .cls-19 {
        fill: url(#linear-gradient-7);
      }

      .cls-20 {
        fill: url(#linear-gradient-9);
      }

      .cls-21 {
        fill: url(#linear-gradient-11);
      }

      .cls-22 {
        fill: url(#linear-gradient-6);
      }

      .cls-23 {
        fill: #cf381e;
      }

      .cls-24 {
        fill: url(#linear-gradient-16);
      }

      .cls-25 {
        fill: url(#linear-gradient);
      }
    </style>
    <linearGradient id="linear-gradient" x1="-445.94" y1="-45.74" x2="-445.94" y2="-63.13" gradientTransform="translate(547.72 71.88)" gradientUnits="userSpaceOnUse">
      <stop offset="0" stop-color="#0e1d40"/>
      <stop offset=".22" stop-color="#0b305a"/>
      <stop offset=".75" stop-color="#055c96"/>
      <stop offset="1" stop-color="#036eae"/>
    </linearGradient>
    <linearGradient id="linear-gradient-2" x1="-435.89" y1="-53.41" x2="-435.89" y2="-59.97" gradientTransform="translate(547.72 71.88)" gradientUnits="userSpaceOnUse">
      <stop offset="0" stop-color="#fff"/>
      <stop offset=".04" stop-color="#f1f1f1"/>
      <stop offset=".11" stop-color="#cecece"/>
      <stop offset=".21" stop-color="#969696"/>
      <stop offset=".33" stop-color="#494949"/>
      <stop offset=".44" stop-color="#000"/>
      <stop offset="1" stop-color="#000"/>
    </linearGradient>
    <linearGradient id="linear-gradient-3" x1="-441.22" y1="-53.38" x2="-441.22" xlink:href="#linear-gradient-2"/>
    <linearGradient id="linear-gradient-4" x1="-400.93" y1="-55.54" x2="-400.93" y2="-60.21" xlink:href="#linear-gradient-2"/>
    <linearGradient id="linear-gradient-5" x1="-387.53" y1="-58.23" x2="-387.53" y2="-60.92" xlink:href="#linear-gradient-2"/>
    <linearGradient id="linear-gradient-6" x1="-418.08" y1="-53.98" x2="-418.08" y2="-60.22" xlink:href="#linear-gradient-2"/>
    <linearGradient id="linear-gradient-7" x1="-409.17" y1="-54.82" x2="-409.17" xlink:href="#linear-gradient-2"/>
    <linearGradient id="linear-gradient-8" x1="-427.62" y1="-53.54" x2="-427.62" y2="-63.05" xlink:href="#linear-gradient-2"/>
    <linearGradient id="linear-gradient-9" x1="-393.46" y1="-57.38" x2="-393.46" xlink:href="#linear-gradient-2"/>
    <linearGradient id="linear-gradient-10" x1="-464.08" y1="-53.83" x2="-464.08" y2="-63.05" xlink:href="#linear-gradient-2"/>
    <linearGradient id="linear-gradient-11" x1="-485.21" y1="-55.39" x2="-485.21" y2="-60.22" xlink:href="#linear-gradient-2"/>
    <linearGradient id="linear-gradient-12" x1="-496.87" y1="-57.21" x2="-496.87" y2="-63.05" xlink:href="#linear-gradient-2"/>
    <linearGradient id="linear-gradient-13" x1="-448.04" y1="-53.37" x2="-448.04" y2="-63.09" xlink:href="#linear-gradient-2"/>
    <linearGradient id="linear-gradient-14" x1="-455.05" y1="-53.46" x2="-455.05" y2="-63.09" xlink:href="#linear-gradient-2"/>
    <linearGradient id="linear-gradient-15" x1="-474.81" y1="-54.36" x2="-474.81" y2="-60.22" xlink:href="#linear-gradient-2"/>
    <linearGradient id="New_Gradient_Swatch_2" data-name="New Gradient Swatch 2" x1="-443.69" y1="-49.33" x2="-443.69" y2="-63.09" gradientTransform="translate(547.72 71.88)" gradientUnits="userSpaceOnUse">
      <stop offset="0" stop-color="#414242"/>
      <stop offset="1" stop-color="#5a595c"/>
    </linearGradient>
    <linearGradient id="New_Gradient_Swatch_2-2" data-name="New Gradient Swatch 2" x1="-525.41" y1="-44.27" x2="-525.41" y2="-67.41" xlink:href="#New_Gradient_Swatch_2"/>
    <linearGradient id="linear-gradient-16" x1="-537.05" y1="-51.45" x2="-521.05" y2="-67.45" gradientTransform="translate(547.72 71.88)" gradientUnits="userSpaceOnUse">
      <stop offset="0" stop-color="#f17f21"/>
      <stop offset=".26" stop-color="#f1821f"/>
      <stop offset=".48" stop-color="#f38c1b"/>
      <stop offset=".68" stop-color="#f69d15"/>
      <stop offset=".87" stop-color="#fbb50c"/>
      <stop offset="1" stop-color="#ffca05"/>
    </linearGradient>
    <linearGradient id="linear-gradient-17" x1="94.28" y1="579.89" x2="110.29" y2="563.88" gradientTransform="translate(598.25 122.41) rotate(-90) scale(1 -1)" xlink:href="#linear-gradient"/>
    <linearGradient id="linear-gradient-18" x1="-522.18" y1="-51.12" x2="-533.74" y2="-68.26" gradientTransform="translate(547.72 71.88)" gradientUnits="userSpaceOnUse">
      <stop offset="0" stop-color="#fff"/>
      <stop offset=".3" stop-color="#000"/>
      <stop offset="1" stop-color="#000"/>
    </linearGradient>
  </defs>
  <g class="cls-13">
    <g id="Layer_1">
      <g>
        <g>
          <path class="cls-23" d="M69.17,53.8c2.64,0,4.78-2.15,4.78-4.8v-11.61c0-2.65-2.14-4.8-4.78-4.8h-11.67c-2.64,0-4.78,2.15-4.78,4.8v11.61c0,2.65,2.14,4.8,4.78,4.8h11.67Z"/>
          <path class="cls-6" d="M65.87,43.85c-.44,1.51.28,3.01,1.82,2.4-.44,1.09-1.19,2.71-1.19,4.39,0,0-.02,1.14.83,1.42,0,0,1.17.29.92-.76,0,0-.33-1.06-.16-1.97.38-2.05,1.29-4.05,1.29-4.05,0,0,1.8-3.71,2.81-5.44,0,0,.46-.89-.47-.89-.3,0-.46.13-.68.35l-2.5,4.49c-.38.69-.75.92-1.03.92-.64,0-.51-1.03-.41-1.38.59-2.32,1.28-3.44,1.36-3.6.44-.99-.47-1.08-.47-1.08-.57-.14-1,.79-1,.79l-1.01,2.05c-.31.58-1.7,2.78-2.14,3.25,0,0-.13.18-.23.1-.05-.04-.04-.25-.04-.25.06-1.43.83-4.1.83-4.1.01-.08.03-.17.03-.24,0-.42-.2-.69-.62-.73-.44-.04-.66.17-1.06.65-.88,1.09-1.92,2.71-2.42,3.46-.06.08-.16.06-.16-.06,0-.34,1.18-3.95,1.18-3.95,0,0,.14-.5-.27-.67,0,0-.61-.38-1.12.37l-2.39,3.27c-.19.25-.28.16-.28.16-.06-.03-.02-.22-.02-.22l.38-2.13c.3-1.64-.27-1.72-.63-1.77-.36-.05-.79.22-.79.22-.75.37-1.31,1.87-1.31,1.87,0,0-.17.53.19.74,0,0,.14.11.4.1.52-.02.63-1.01,1.01-1.01.07,0,.07.08.07.1l-1.23,5.19s-.14.51.31.79c.58.35.95-.23.95-.23l.43-.7c.66-1.15,1.85-2.81,1.98-2.81.04,0,.06.01.06.06l-.42,3.04s-.09.5.35.67c0,0,.43.15.68-.05,0,0,.31-.21.62-.72.24-.39,1.44-1.81,2.18-3.11.06-.08.1-.01.08.06-.14.68-.26,2.5-.28,2.94-.03.9.64.99.67.99,0,0,.56.13,1.12-.54l1.76-2.37Z"/>
          <path class="cls-16" d="M29.97,45.86h-1.32v-2.98c0-.42-.07-.74-.2-.95-.13-.21-.36-.31-.68-.31-.23,0-.45.06-.64.17-.19.12-.36.28-.5.49v3.57h-1.32v-5.41h.75l.5.73c.11-.1.27-.22.4-.3.13-.08.27-.16.42-.22.15-.06.3-.11.46-.15.16-.04.33-.06.49-.06.19,0,.37.02.51.06.15.04.28.1.39.18.11.08.21.17.3.29.08.11.16.24.22.38.1-.1.22-.21.35-.32.13-.11.28-.21.44-.29.16-.09.33-.16.52-.21.19-.06.39-.08.61-.08.3,0,.55.06.76.18.21.12.38.29.51.5.13.22.23.47.29.77.06.3.09.62.09.97v2.99h-1.32v-2.98c0-.42-.07-.74-.2-.95-.13-.21-.36-.31-.67-.31-.23,0-.45.05-.64.16-.19.11-.37.28-.52.5v3.57Z"/>
          <path class="cls-16" d="M37.68,45.26c-.15.17-.39.32-.66.43-.27.11-.59.17-.97.17-.26,0-.5-.04-.71-.13-.21-.08-.39-.2-.54-.35-.15-.15-.27-.33-.35-.54-.08-.21-.12-.43-.12-.68,0-1.01.78-1.65,2.03-1.65h1.32v-.3c0-.18-.09-.33-.28-.44-.19-.11-.47-.16-.86-.16-.36,0-.69.04-1,.11-.31.08-.48.14-.74.25l-.16-1.13c.1-.04.22-.09.36-.14.14-.05.3-.09.47-.13.17-.04.36-.07.56-.1.2-.03.41-.04.63-.04.77,0,1.34.19,1.72.56.38.37.58.91.58,1.6v3.25h-.94l-.32-.6ZM37.68,43.4h-1.19c-.32,0-.55.07-.7.2-.15.12-.22.29-.22.51s.06.37.19.48c.12.11.31.17.56.17.15,0,.3-.02.44-.06.14-.04.27-.1.38-.16.12-.07.22-.15.31-.25.09-.1.17-.2.22-.3v-.58Z"/>
          <polygon class="cls-16" points="45.2 40.37 43.04 43.07 45.5 45.86 43.83 45.86 41.56 43.11 41.56 45.86 40.24 45.86 40.24 38.43 41.56 38.43 41.56 43.11 43.58 40.37 45.2 40.37"/>
          <path class="cls-16" d="M48.39,44.7c.23,0,.45-.02.63-.06.19-.04.36-.09.52-.15.16-.06.3-.13.42-.21.13-.08.08-.04.19-.12l.26,1.17c-.23.15-.56.28-.9.38-.33.1-.71.15-1.14.15-.46,0-.87-.07-1.23-.19-.36-.13-.66-.31-.9-.55-.24-.24-.43-.52-.56-.85-.13-.33-.19-.7-.19-1.1,0-.37.06-.72.17-1.05.12-.33.28-.62.51-.87.22-.25.5-.45.82-.59.33-.14.71-.22,1.13-.22s.8.07,1.12.21c.31.14.57.32.77.55.2.23.35.49.45.79.1.3.13.6.13.92,0,.09,0,.18-.01.3,0,.11-.02.2-.04.28h-3.69c.02.19.07.36.15.5.08.15.18.28.31.38.13.1.29.18.47.24.18.06.38.09.6.09M48.14,41.61c-.17,0-.33.02-.48.07-.14.04-.27.11-.37.18-.11.08-.19.18-.26.29-.07.11-.11.24-.14.37h2.35c0-.12-.02-.24-.07-.35-.04-.11-.11-.21-.2-.29-.09-.08-.2-.15-.34-.2-.14-.05-.3-.07-.48-.07"/>
          <path class="cls-16" d="M75.25,41.22l1.79-2.13h.39v1.36h1.53v1.18h-1.53v2.22c0,.15.02.28.06.39.04.1.09.18.15.25.06.06.14.1.22.13.08.03.17.04.27.04.18,0,.33-.02.46-.05.13-.03.25-.08.36-.13v1.18c-.14.07-.29.12-.45.16-.16.04-.35.06-.58.06-.32,0-.6-.04-.83-.11-.23-.08-.42-.19-.56-.33-.15-.15-.25-.32-.32-.53-.07-.21-.1-.44-.1-.7v-2.56h-.86v-.41Z"/>
          <path class="cls-16" d="M81.21,41.56c.18-.32.5-.64.76-.83.26-.19.58-.29.95-.29.13,0,.23,0,.31.02.08.01.14.02.18.04,0,0-.04.31-.24,1.24-.08-.02-.18-.03-.29-.03-.25,0-.47.04-.67.13-.2.09-.36.21-.5.37-.14.16-.24.36-.31.6-.07.23-.11.5-.11.8v2.25h-1.32v-5.41h.85l.4,1.11Z"/>
          <path class="cls-16" d="M89.77,40.44c.4,0,.74.08,1.03.23.29.15.52.35.71.61.19.25.33.55.42.88.09.33.13.68.13,1.03s-.05.71-.14,1.03c-.09.32-.24.6-.43.85-.19.24-.43.44-.71.58-.28.14-.61.21-.99.21s-.68-.05-.94-.16c-.25-.11-.48-.27-.67-.47h-.02v2.82h-1.32v-7.59h.79l.51.66c.19-.2.46-.39.73-.5.26-.11.56-.17.9-.17M89.43,41.63c-.17,0-.32.02-.46.08-.14.05-.26.11-.36.19-.1.08-.19.17-.27.27-.07.1-.14.21-.18.31v1.54c.05.09.12.18.2.26.08.08.18.16.28.22.1.06.22.11.35.15.13.04.26.06.41.06.22,0,.42-.04.58-.11.16-.07.3-.17.41-.31.11-.13.19-.29.24-.47.05-.18.08-.39.08-.61s-.03-.45-.09-.64c-.06-.19-.15-.36-.26-.5-.11-.14-.25-.25-.41-.33-.16-.08-.33-.12-.52-.12"/>
          <path class="cls-16" d="M85.44,45.86h-1.32v-5.41h1.32v5.41ZM84.78,38.22c-.38,0-.69.31-.69.69s.31.69.69.69.69-.31.69-.69-.31-.69-.69-.69Z"/>
        </g>
        <rect class="cls-16" x="95.79" y="36.9" width="59.45" height="12.95" rx="6.48" ry="6.48"/>
        <g>
          <path class="cls-6" d="M104.38,43.52v1.79c-.22.16-.46.29-.72.36-.25.08-.52.11-.81.11-.36,0-.69-.06-.98-.17s-.54-.27-.75-.47c-.21-.2-.37-.44-.48-.71-.11-.28-.17-.58-.17-.91s.05-.64.16-.91.26-.52.46-.72.44-.35.72-.46c.28-.11.6-.16.95-.16.18,0,.35.01.5.04s.3.07.43.12c.13.05.26.11.36.18.11.07.21.15.3.23l-.24.37c-.04.06-.08.1-.14.11-.06.01-.12,0-.19-.04-.07-.04-.13-.08-.2-.12-.07-.04-.14-.07-.22-.1s-.18-.05-.28-.07c-.1-.02-.22-.03-.36-.03-.22,0-.41.04-.59.11-.18.07-.33.18-.45.31-.12.14-.22.3-.29.49s-.1.4-.1.64c0,.25.04.48.11.68s.17.37.31.5c.13.14.29.24.47.31s.39.11.62.11c.16,0,.31-.02.44-.05.13-.03.25-.08.38-.14v-.8h-.56c-.05,0-.09-.01-.12-.04s-.04-.07-.04-.11v-.46h1.47Z"/>
          <path class="cls-6" d="M109.17,45.73h-.74c-.14,0-.24-.05-.31-.16l-.93-1.41c-.03-.05-.07-.09-.11-.11-.04-.02-.1-.03-.18-.03h-.35v1.72h-.82v-4.41h1.35c.3,0,.56.03.77.09.21.06.39.15.53.26.14.11.24.25.3.4.06.16.1.33.1.52,0,.15-.02.29-.07.42-.04.13-.11.25-.19.36-.08.11-.18.2-.31.28-.12.08-.26.15-.41.19.05.03.1.07.15.11.04.04.09.09.12.15l1.11,1.63ZM107.05,43.42c.15,0,.29-.02.4-.06.12-.04.21-.09.28-.16.07-.07.13-.15.17-.24.04-.09.05-.2.05-.31,0-.22-.07-.4-.22-.52-.15-.12-.37-.18-.68-.18h-.52v1.47h.51Z"/>
          <path class="cls-6" d="M114.34,43.53c0,.32-.05.62-.16.9s-.26.51-.45.72-.43.36-.71.47c-.28.11-.58.17-.92.17s-.64-.06-.91-.17c-.28-.11-.51-.27-.71-.47s-.35-.44-.46-.72-.16-.58-.16-.9.05-.62.16-.9.26-.51.46-.72.43-.36.71-.47c.27-.11.58-.17.91-.17.22,0,.43.03.63.08.2.05.38.12.54.22.16.09.31.21.44.34.13.14.24.29.33.45.09.17.16.35.21.54.05.2.07.4.07.62ZM113.5,43.53c0-.24-.03-.46-.1-.65-.06-.19-.16-.36-.28-.49-.12-.13-.27-.24-.44-.31-.17-.07-.37-.11-.58-.11s-.41.03-.58.11c-.17.07-.32.17-.44.31-.12.13-.21.3-.28.49-.06.19-.1.41-.1.65s.03.46.1.65c.07.19.16.36.28.49.12.13.27.24.44.31.17.07.37.11.58.11s.41-.03.58-.11c.17-.07.32-.17.44-.31.12-.13.21-.3.28-.49.07-.19.1-.41.1-.65Z"/>
          <path class="cls-6" d="M117.4,45.07c.16,0,.3-.03.43-.08.13-.05.23-.13.32-.22.09-.1.15-.21.2-.35.05-.14.07-.29.07-.46v-2.64h.82v2.64c0,.26-.04.51-.13.73s-.21.42-.36.58c-.16.16-.35.29-.58.38-.23.09-.48.14-.76.14s-.54-.05-.77-.14c-.23-.09-.42-.22-.58-.38-.16-.16-.28-.35-.36-.58s-.13-.47-.13-.73v-2.64h.82v2.64c0,.17.02.32.07.46s.11.25.2.35c.09.1.19.17.32.22.13.05.27.08.43.08Z"/>
          <path class="cls-6" d="M122.14,41.32c.3,0,.55.03.77.1.22.07.39.17.53.29s.24.27.31.45c.07.17.1.36.1.57s-.04.41-.11.59c-.07.18-.18.33-.32.46-.14.13-.32.23-.54.3-.21.07-.47.11-.75.11h-.61v1.55h-.82v-4.41h1.43ZM122.14,43.54c.15,0,.28-.02.39-.06s.2-.09.28-.16c.07-.07.13-.16.17-.26s.05-.21.05-.34-.02-.22-.05-.32c-.04-.1-.09-.18-.16-.24-.07-.07-.17-.12-.28-.15s-.24-.05-.4-.05h-.61v1.59h.61Z"/>
          <path class="cls-6" d="M127.72,41.97v1.22h1.54v.63h-1.54v1.25h1.96v.66h-2.78v-4.41h2.78v.65h-1.96Z"/>
          <path class="cls-6" d="M134.68,41.32v4.41h-.42c-.07,0-.12-.01-.16-.03-.04-.02-.09-.06-.13-.11l-2.31-2.94c.01.14.02.26.02.37v2.71h-.72v-4.41h.43s.06,0,.09,0c.03,0,.05,0,.07.02.02,0,.04.02.06.04.02.02.04.04.06.07l2.31,2.96c0-.07-.01-.14-.02-.21,0-.07,0-.13,0-.19v-2.68h.72Z"/>
          <path class="cls-6" d="M139.29,41.99h-1.33v3.74h-.82v-3.74h-1.33v-.67h3.48v.67Z"/>
          <path class="cls-6" d="M141.25,45.73h-.82v-4.41h.82v4.41Z"/>
          <path class="cls-6" d="M145.87,41.99h-1.33v3.74h-.82v-3.74h-1.33v-.67h3.48v.67Z"/>
          <path class="cls-6" d="M148.89,44.02v1.71h-.82v-1.71l-1.61-2.7h.72c.07,0,.13.02.17.05s.08.08.11.13l.81,1.48c.05.09.09.17.12.25.04.08.07.15.1.23.03-.08.06-.16.09-.23.03-.08.07-.16.12-.25l.8-1.48s.06-.09.1-.12.1-.06.17-.06h.73l-1.61,2.7Z"/>
        </g>
        <path class="cls-25" d="M96.17,19.12l-2.68-10.37h-2.72c-.39.03-.73.18-1.01.45-.28.28-.41.61-.41,1.01v12.14h2.6v-10.96l2.8,10.96h2.88l2.76-10.96v10.96h2.6v-13.6h-4.14l-2.68,10.37ZM112.32,11.86c-.68,0-1.1.32-1.26.95l-1.85,6.47-2.13-7.41h-3.03l3.67,10.45c.18.55.12.95-.18,1.2-.3.25-.72.37-1.24.37h-.75v2.17c.08,0,.18,0,.3.02.12.01.22.03.3.06h.55c1.08,0,1.85-.16,2.33-.47.47-.37.87-.99,1.18-1.85l4.02-11.94h-1.89Z"/>
        <g class="cls-11">
          <path class="cls-3" d="M111.05,12.85l-1.61,5.62c.86-.01,1.72-.03,2.57-.05l2.19-6.52h-1.89c-.68,0-1.1.32-1.26.95Z"/>
          <path class="cls-8" d="M107.07,11.9h-3.03l2.31,6.6c.87,0,1.74-.01,2.61-.03l-1.89-6.57Z"/>
          <path class="cls-7" d="M150.48,13.09c-.87-.95-2.09-1.42-3.67-1.42s-2.67.49-3.51,1.46c-.69.8-1.09,1.88-1.19,3.21.94-.12,1.87-.24,2.78-.37.04-.63.24-1.12.58-1.46.37-.37.84-.55,1.42-.55.63,0,1.12.18,1.46.55.2.22.35.51.44.88.91-.15,1.79-.3,2.66-.45-.21-.72-.53-1.34-.97-1.85Z"/>
          <path class="cls-9" d="M159,11.67l-1.17,1.98c1.25-.29,2.43-.59,3.56-.89l1.16-1.79h-2.37c-.55,0-.95.24-1.18.71Z"/>
          <path class="cls-22" d="M134.46,17.17s0-.07,0-.1c0-1.16-.22-2.17-.67-3.04-.47-.97-1.21-1.66-2.21-2.05-.87-.32-1.84-.4-2.92-.26-1.08.15-1.96.61-2.64,1.4-.42.47-.73,1.06-.93,1.77-.2.71-.3,1.42-.3,2.13,0,.29.02.58.05.87.9-.05,1.79-.11,2.67-.17-.02-.17-.03-.34-.04-.52-.05-1.2.2-2.1.75-2.7.18-.18.47-.33.87-.45.39-.12.79-.11,1.18.02.39.13.74.43,1.04.91.3.47.45,1.18.45,2.13,0,.1,0,.2-.01.3.91-.08,1.8-.15,2.69-.24Z"/>
          <path class="cls-19" d="M141.5,14.7v-2.8h-.39c-.71,0-1.4.09-2.07.28-.67.18-1.26.47-1.75.87-.53.42-.94.98-1.24,1.68-.28.64-.43,1.42-.45,2.34.93-.09,1.85-.19,2.76-.28.03-.68.21-1.19.55-1.52.37-.37.93-.55,1.7-.55h.91Z"/>
          <path class="cls-14" d="M125.02,11.15v-2.33h-8.44c-.39,0-.73.14-1.01.41-.28.28-.41.61-.41,1.01v8.09c.93-.03,1.85-.06,2.76-.1v-1.84h3.86c.39,0,.73-.14,1.01-.41.28-.28.41-.61.41-1v-.91h-5.28v-2.92h7.1Z"/>
          <path class="cls-20" d="M155.18,11.9h-3.03l1.65,2.6c.88-.17,1.74-.35,2.57-.53l-1.19-2.07Z"/>
          <path class="cls-4" d="M81.29,9.22c-.26-.26-.58-.39-.95-.39h-1.42v8.78c2.25.17,4.56.31,6.92.43l-1.24-2.12,3.75-4.02h-3.31l-3.35,3.86v-5.64c0-.34-.13-.64-.39-.91Z"/>
          <path class="cls-21" d="M66.56,14.03c-.47-.97-1.21-1.66-2.21-2.05-.87-.32-1.84-.4-2.92-.26-1.08.15-1.96.61-2.64,1.4-.42.47-.73,1.06-.93,1.77-.02.08-.04.16-.06.24.85.14,1.73.29,2.61.42.13-.42.32-.77.58-1.06.18-.18.47-.33.87-.45.39-.12.79-.11,1.18.02.39.13.74.43,1.04.91.19.3.32.69.39,1.17.89.12,1.8.23,2.72.34-.06-.92-.28-1.74-.65-2.46Z"/>
          <path class="cls-5" d="M55.76,13.99c.29-.47.43-1.05.43-1.73,0-1.08-.37-1.93-1.1-2.56-.74-.58-1.8-.87-3.19-.87h-4.97c-.39,0-.73.14-1.01.41-.28.28-.41.61-.41,1.01v2.17c.85.25,1.75.49,2.68.73v-1.96h3.15c.76,0,1.27.11,1.54.32.32.24.47.6.47,1.1s-.16.87-.47,1.1c-.21.16-.52.27-.9.32,1.02.22,2.07.43,3.16.63.24-.2.45-.42.62-.68Z"/>
          <path class="cls-2" d="M96.36,18.43c.75.02,1.5.03,2.26.04l1.77-7.04v7.06c.86,0,1.73.01,2.6.02v-9.71h-4.14l-2.49,9.64Z"/>
          <path class="cls-17" d="M93.49,8.79h-2.72c-.39.03-.73.18-1.01.45-.28.28-.41.61-.41,1.01v7.96c.86.04,1.73.07,2.6.1v-6.88l1.77,6.93c.75.02,1.5.04,2.26.06l-2.49-9.63Z"/>
          <path class="cls-1" d="M77.72,17.52c0-.15.01-.3.01-.45,0-1.16-.22-2.17-.67-3.04-.47-.97-1.21-1.66-2.21-2.05-.87-.32-1.84-.4-2.92-.26-1.08.15-1.96.61-2.64,1.4-.42.47-.73,1.06-.93,1.77-.16.56-.25,1.13-.28,1.69.88.1,1.76.2,2.66.29,0-1.04.25-1.83.75-2.38.18-.18.47-.33.87-.45.39-.12.79-.11,1.18.02.39.13.74.43,1.04.91.3.47.45,1.18.45,2.13,0,.07,0,.13,0,.19.88.08,1.78.15,2.68.22Z"/>
        </g>
        <path class="cls-15" d="M54.54,15.02c.53-.26.93-.62,1.22-1.06.29-.47.43-1.05.43-1.73,0-1.08-.37-1.93-1.1-2.56-.74-.58-1.8-.87-3.19-.87h-4.97c-.39,0-.73.14-1.01.41-.28.28-.41.61-.41,1.01v12.14h6.19c1.58,0,2.8-.35,3.67-1.06.84-.74,1.26-1.76,1.26-3.08,0-.81-.17-1.47-.51-1.97-.37-.53-.89-.93-1.58-1.22ZM48.19,11.15h3.15c.76,0,1.27.11,1.54.32.32.24.47.6.47,1.1s-.16.87-.47,1.1c-.32.24-.82.36-1.5.36h-3.19v-2.88ZM53.2,19.47c-.39.29-.96.43-1.7.43h-3.31v-3.55h3.27c.81,0,1.39.13,1.73.39.37.29.55.75.55,1.38s-.18,1.08-.55,1.34ZM64.35,11.94c-.87-.31-1.84-.4-2.92-.26-1.08.14-1.96.61-2.64,1.4-.42.47-.73,1.06-.93,1.77-.2.71-.3,1.42-.3,2.13,0,.87.12,1.7.35,2.5.24.8.63,1.44,1.18,1.91.53.47,1.23.81,2.11,1.01.88.2,1.75.18,2.62-.06.97-.21,1.77-.75,2.4-1.62.29-.42.53-.93.71-1.54.18-.6.28-1.33.28-2.17,0-1.16-.22-2.17-.67-3.04-.47-.97-1.21-1.66-2.21-2.05ZM64.03,19.35c-.32.47-.68.77-1.08.89-.41.12-.81.11-1.2-.04-.39-.14-.67-.32-.83-.53-.39-.47-.62-1.31-.67-2.5-.05-1.2.2-2.1.75-2.7.18-.18.47-.33.87-.45.39-.12.79-.11,1.18.02.39.13.74.43,1.04.91.3.47.45,1.18.45,2.13-.03,1.05-.2,1.81-.51,2.29ZM74.85,11.94c-.87-.31-1.84-.4-2.92-.26-1.08.14-1.96.61-2.64,1.4-.42.47-.73,1.06-.93,1.77-.2.71-.3,1.42-.3,2.13,0,.87.12,1.7.35,2.5.24.8.63,1.44,1.18,1.91.53.47,1.23.81,2.11,1.01.88.2,1.75.18,2.62-.06.97-.21,1.77-.75,2.4-1.62.29-.42.53-.93.71-1.54.18-.6.28-1.33.28-2.17,0-1.16-.22-2.17-.67-3.04-.47-.97-1.21-1.66-2.21-2.05ZM74.54,19.35c-.32.47-.68.77-1.08.89-.41.12-.81.11-1.2-.04-.39-.14-.67-.32-.83-.53-.39-.47-.62-1.31-.67-2.5-.05-1.2.2-2.1.75-2.7.18-.18.47-.33.87-.45.39-.12.79-.11,1.18.02.39.13.74.43,1.04.91.3.47.45,1.18.45,2.13-.03,1.05-.2,1.81-.51,2.29ZM88.35,11.86h-3.31l-3.35,3.86v-5.64c0-.34-.13-.64-.39-.91-.26-.26-.58-.39-.95-.39h-1.42v13.56h2.76v-3.98c0-.21.14-.37.43-.47.29-.1.63.2,1.02.91l1.93,3.55h3.31l-3.79-6.46,3.75-4.02ZM117.92,11.11h7.1v-2.33h-8.44c-.39,0-.73.14-1,.41-.28.28-.41.61-.41,1.01v12.14h2.76v-5.99h3.86c.39,0,.73-.14,1.01-.41.28-.28.41-.61.41-1.01v-.91h-5.28v-2.92ZM131.59,11.94c-.87-.31-1.84-.4-2.92-.26-1.08.14-1.96.61-2.64,1.4-.42.47-.73,1.06-.93,1.77-.2.71-.3,1.42-.3,2.13,0,.87.12,1.7.35,2.5.24.8.63,1.44,1.18,1.91.53.47,1.23.81,2.11,1.01.88.2,1.75.18,2.62-.06.97-.21,1.77-.75,2.41-1.62.29-.42.53-.93.71-1.54.18-.6.28-1.33.28-2.17,0-1.16-.22-2.17-.67-3.04-.47-.97-1.21-1.66-2.21-2.05ZM131.27,19.35c-.31.47-.68.77-1.08.89-.41.12-.81.11-1.2-.04-.39-.14-.67-.32-.83-.53-.39-.47-.62-1.31-.67-2.5-.05-1.2.2-2.1.75-2.7.18-.18.47-.33.87-.45.39-.12.79-.11,1.18.02.39.13.74.43,1.04.91.3.47.45,1.18.45,2.13-.03,1.05-.2,1.81-.51,2.29ZM139.04,12.14c-.67.18-1.26.47-1.75.87-.53.42-.94.98-1.24,1.68-.3.7-.45,1.56-.45,2.58v5.09h2.76v-5.4c0-.79.18-1.37.55-1.73.37-.37.93-.55,1.7-.55h.91v-2.8h-.39c-.71,0-1.4.09-2.07.28ZM146.82,11.63c-1.5,0-2.67.49-3.51,1.46-.82.95-1.22,2.26-1.22,3.94s.42,3.11,1.26,4.06c.84.97,2.01,1.46,3.51,1.46,1.23,0,2.26-.3,3.07-.91.81-.58,1.37-1.42,1.66-2.52h-1.97c-.32,0-.56.07-.73.2-.17.13-.27.24-.3.32-.08.08-.15.15-.22.22-.07.07-.14.11-.22.14-.32.18-.7.28-1.14.28-.68,0-1.2-.21-1.54-.63-.37-.39-.57-1-.59-1.81h6.82c.03-.05.04-.14.04-.28v-.43c0-1.73-.42-3.09-1.26-4.06-.87-.95-2.09-1.42-3.67-1.42ZM144.88,16.04c.03-.68.22-1.21.59-1.58.37-.37.84-.55,1.42-.55.63,0,1.12.18,1.46.55.32.34.5.87.55,1.58h-4.02ZM162.55,10.92h-2.37c-.55,0-.95.24-1.18.71l-2.01,3.39-1.81-3.15h-3.03l3.23,5.09-3.43,5.4h3.19l1.93-3.31,1.85,3.31h3.15l-3.47-5.36,3.94-6.07Z"/>
        <path class="cls-10" d="M30.98,4.46h-2.73l5.63,5.63v-2.73c0-1.6-1.3-2.89-2.89-2.89ZM10.73,7.36v2.73l5.62-5.62h-2.73c-1.6,0-2.89,1.29-2.89,2.89ZM10.73,24.71c0,1.6,1.29,2.89,2.89,2.89h2.73l-5.62-5.62v2.73ZM30.98,27.6c1.6,0,2.89-1.29,2.89-2.89v-2.73l-5.63,5.62h2.73Z"/>
        <path class="cls-24" d="M11.21,20.97l-3.12-3.14s-1.48-1.69.07-3.68L20.3,2.02s1.48-1.66,3.71-.26l7.06,7.06-4.36,1.63.65.6-4.45,4.45-1.44-1.34-8.53,8.55-1.73-1.73Z"/>
        <path class="cls-18" d="M17.37,27.13l3.14,3.12s1.69,1.48,3.68-.07l12.14-12.14s1.66-1.48.26-3.71l-5.41-5.41-1.55,4.16-.68-.61-5.99,5.96-1.36-1.38-7.16,7.14,2.94,2.93Z"/>
        <path class="cls-12" d="M18.75,16.86l2.7-2.71,1.45,1.35,4.44-4.46-.64-.59,4.36-1.63-7.06-7.06c-.55-.33-.99-.53-1.7-.56-.6-.03-1.33.2-1.9.72l-12.24,12.24c-.94,1.18-.9,2.63-.07,3.68l4.85,4.87,5.81-5.85ZM13.62,4.46c-1.6,0-2.89,1.29-2.89,2.89v2.73l5.62-5.62h-2.73ZM29.61,13.08l-.68-.61-5.99,5.96-1.35-1.38-2.66,2.66-4.49,4.48.42.42c9.24-.99,16.53-6.88,17.67-14.34l-1.35-1.35-1.56,4.16ZM10.72,24.71s0,0,0,0c.46.02.92.04,1.39.04s.91-.01,1.35-.04l-2.74-2.74v2.73ZM32.23,4.75c-.38-.18-.81-.29-1.26-.29h-2.73l4.42,4.42c.01-.23.02-.45.02-.68,0-1.18-.16-2.34-.45-3.45Z"/>
      </g>
    </g>
  </g>
</svg>