<svg width="18" height="18" viewBox="0 0 18 18" fill="none" xmlns="http://www.w3.org/2000/svg">
<path d="M17.4829 2.46009C17.2181 2.19483 16.7885 2.19438 16.5237 2.45896L8.38527 10.5759L5.44895 7.38678C5.19522 7.11136 4.76625 7.0935 4.49038 7.34719C4.21472 7.60091 4.19707 8.0301 4.45079 8.30576L7.86538 12.0141C7.92723 12.0813 8.00205 12.1353 8.08533 12.1729C8.16861 12.2105 8.25863 12.2309 8.34997 12.2327C8.35493 12.233 8.35971 12.233 8.36445 12.233C8.54398 12.2329 8.71617 12.1618 8.84339 12.0351L17.4816 3.41954C17.7471 3.15499 17.7475 2.72534 17.4829 2.46009Z" fill="url(#paint0_linear_2057_238)"/>
<path d="M17.3216 8.32159C16.9469 8.32159 16.6432 8.62527 16.6432 9C16.6432 13.2146 13.2146 16.6432 9 16.6432C4.78561 16.6432 1.35679 13.2146 1.35679 9C1.35679 4.78561 4.78561 1.35679 9 1.35679C9.3747 1.35679 9.67841 1.05311 9.67841 0.67841C9.67841 0.30368 9.3747 0 9 0C4.03734 0 0 4.03734 0 9C0 13.9624 4.03734 18 9 18C13.9624 18 18 13.9624 18 9C18 8.6253 17.6963 8.32159 17.3216 8.32159Z" fill="url(#paint1_linear_2057_238)"/>
<defs>
<linearGradient id="paint0_linear_2057_238" x1="6.58599" y1="10.9812" x2="13.6096" y2="1.84579" gradientUnits="userSpaceOnUse">
<stop stop-color="#0E1D40"/>
<stop offset="0.22" stop-color="#0B305A"/>
<stop offset="0.75" stop-color="#055C96"/>
<stop offset="1" stop-color="#036EAE"/>
</linearGradient>
<linearGradient id="paint1_linear_2057_238" x1="3.10682" y1="15.7405" x2="16.218" y2="3.0587" gradientUnits="userSpaceOnUse">
<stop stop-color="#0E1D40"/>
<stop offset="0.22" stop-color="#0B305A"/>
<stop offset="0.75" stop-color="#055C96"/>
<stop offset="1" stop-color="#036EAE"/>
</linearGradient>
</defs>
</svg>
