<svg width="64" height="52" viewBox="0 0 64 52" fill="none" xmlns="http://www.w3.org/2000/svg">
<g clip-path="url(#clip0_2057_241)">
<g opacity="0.21">
<path d="M68.1351 11.9554C48.8172 6.38085 44.0298 10.9903 49.426 20.983C54.0826 29.606 35.7718 27.1443 22.0865 24.5405C8.40115 21.9367 3.71914 23.81 0.712891 31.0325" stroke="#BEBEBE" stroke-width="0.0444444" stroke-miterlimit="10"/>
<path d="M-48.7992 60.58C-29.4812 66.1545 -24.6938 61.545 -30.0901 51.5523C-34.7467 42.9293 -16.4359 45.391 -2.75054 47.9948C10.9348 50.5986 15.6168 48.7254 18.623 41.5028" stroke="#BEBEBE" stroke-width="0.0444444" stroke-miterlimit="10"/>
<path d="M67.9192 13.0133C48.5571 7.18641 42.8798 10.9966 48.3624 20.7614C53.2928 29.5425 36.8888 27.8021 23.2037 25.1982C9.5185 22.5944 4.83633 24.4677 1.83008 31.6902" stroke="#BEBEBE" stroke-width="0.0444444" stroke-miterlimit="10"/>
<path d="M-48.5832 59.522C-29.2212 65.3489 -23.5439 61.5388 -29.0264 51.774C-33.9569 42.9929 -17.5529 44.7332 -3.86773 47.3371C9.81744 49.9409 14.4996 48.0677 17.5059 40.8451" stroke="#BEBEBE" stroke-width="0.0444444" stroke-miterlimit="10"/>
<path d="M67.7034 14.0711C48.2973 7.99187 41.7404 11.0018 47.2989 20.5396C52.5085 29.4787 38.006 28.4598 24.3209 25.8559C10.6357 23.2521 5.95351 25.1254 2.94727 32.3479" stroke="#BEBEBE" stroke-width="0.0444444" stroke-miterlimit="10"/>
<path d="M-48.3694 58.4642C-28.9633 64.5435 -22.4064 61.5336 -27.9649 51.9957C-33.1745 43.0566 -18.672 44.0755 -4.98687 46.6794C8.6983 49.2832 13.3805 47.41 16.3867 40.1874" stroke="#BEBEBE" stroke-width="0.0444444" stroke-miterlimit="10"/>
<path d="M67.4894 15.129C48.0393 8.79736 40.613 11.0062 46.2374 20.318C51.732 29.4148 39.1252 29.1175 25.44 26.5137C11.7548 23.9099 7.07265 25.7832 4.06641 33.0057" stroke="#BEBEBE" stroke-width="0.0444444" stroke-miterlimit="10"/>
<path d="M-48.1534 57.4063C-28.7034 63.738 -21.277 61.5292 -26.9015 52.2174C-32.396 43.1206 -19.7892 43.4178 -6.10406 46.0216C7.58111 48.6254 12.2633 46.7522 15.2695 39.5296" stroke="#BEBEBE" stroke-width="0.0444444" stroke-miterlimit="10"/>
<path d="M67.2736 16.1867C47.7795 9.60274 39.493 11.0093 45.174 20.0961C50.9596 29.3501 40.2425 29.7751 26.5572 27.1712C12.872 24.5674 8.18984 26.4407 5.18359 33.6633" stroke="#BEBEBE" stroke-width="0.0444444" stroke-miterlimit="10"/>
<path d="M-47.9376 56.3486C-28.4435 62.9326 -20.1571 61.526 -25.838 52.4393C-31.6236 43.1853 -20.9066 42.7603 -7.22125 45.3641C6.46392 47.9679 11.1461 46.0946 14.1523 38.8721" stroke="#BEBEBE" stroke-width="0.0444444" stroke-miterlimit="10"/>
<path d="M67.0596 17.2446C47.5215 10.4082 38.3836 11.0116 44.1123 19.8744C50.1953 29.2851 41.3615 30.4329 27.6763 27.8291C13.9912 25.2252 9.30898 27.0985 6.30273 34.3211" stroke="#BEBEBE" stroke-width="0.0444444" stroke-miterlimit="10"/>
<path d="M-47.7236 55.2907C-28.1856 62.1271 -19.0476 61.5237 -24.7764 52.6609C-30.8593 43.2503 -22.0256 42.1025 -8.34038 44.7063C5.34479 47.3101 10.027 45.4368 13.0332 38.2143" stroke="#BEBEBE" stroke-width="0.0444444" stroke-miterlimit="10"/>
<path d="M66.8436 18.3027C47.2615 11.2139 37.2805 11.013 43.0489 19.6528C49.436 29.2194 42.4787 31.0907 28.7935 28.4868C15.1083 25.883 10.4262 27.7563 7.41992 34.9788" stroke="#BEBEBE" stroke-width="0.0444444" stroke-miterlimit="10"/>
<path d="M-47.5077 54.2326C-27.9255 61.3214 -17.9446 61.5222 -23.7129 52.8825C-30.1 43.3159 -23.1427 41.4446 -9.45757 44.0485C4.2276 46.6523 8.90977 44.779 11.916 37.5565" stroke="#BEBEBE" stroke-width="0.0444444" stroke-miterlimit="10"/>
<path d="M66.6278 19.3604C47.0016 12.0193 36.1852 11.0132 41.9854 19.431C48.6838 29.1525 43.596 31.7484 29.9107 29.1445C16.2255 26.5406 11.5434 28.4139 8.53711 35.6365" stroke="#BEBEBE" stroke-width="0.0444444" stroke-miterlimit="10"/>
<path d="M-47.2919 53.1749C-27.6656 60.5161 -16.8493 61.5222 -22.6495 53.1043C-29.3479 43.3828 -24.2601 40.787 -10.5748 43.3909C3.11041 45.9947 7.79258 44.1214 10.7988 36.8989" stroke="#BEBEBE" stroke-width="0.0444444" stroke-miterlimit="10"/>
<path d="M66.4138 20.4183C46.7437 12.8248 35.0991 11.0123 40.9238 19.2094C47.941 29.0846 44.715 32.4062 31.0298 29.8023C17.3447 27.1984 12.6625 29.0717 9.65625 36.2943" stroke="#BEBEBE" stroke-width="0.0444444" stroke-miterlimit="10"/>
<path d="M-47.0779 52.117C-27.4077 59.7104 -15.7631 61.523 -21.5878 53.3259C-28.6051 43.4507 -25.3791 40.1291 -11.6939 42.733C1.99127 45.3369 6.67344 43.4636 9.67969 36.241" stroke="#BEBEBE" stroke-width="0.0444444" stroke-miterlimit="10"/>
<path d="M66.1979 21.4761C46.4836 13.6303 34.0177 11.0102 39.8603 18.9876C47.2045 29.0152 45.8322 33.0637 32.147 30.4599C18.4619 27.8561 13.7797 29.7293 10.7734 36.9519" stroke="#BEBEBE" stroke-width="0.0444444" stroke-miterlimit="10"/>
<path d="M-46.8619 51.0592C-27.1477 58.905 -14.6818 61.5251 -20.5244 53.5477C-27.8685 43.52 -26.4963 39.4716 -12.8111 42.0754C0.87408 44.6792 5.55625 42.8059 8.5625 35.5834" stroke="#BEBEBE" stroke-width="0.0444444" stroke-miterlimit="10"/>
<path d="M65.9821 22.5339C46.2237 14.4357 32.9428 11.007 38.7969 18.7659C46.4765 28.9445 46.9494 33.7214 33.2642 31.1176C19.579 28.5138 14.8969 30.3871 11.8906 37.6096" stroke="#BEBEBE" stroke-width="0.0444444" stroke-miterlimit="10"/>
<path d="M-46.6481 50.0014C-26.8897 58.0996 -13.6088 61.5284 -19.4629 53.7695C-27.1425 43.5909 -27.6154 38.8139 -13.9302 41.4177C-0.245057 44.0215 4.43711 42.1483 7.44336 34.9257" stroke="#BEBEBE" stroke-width="0.0444444" stroke-miterlimit="10"/>
<path d="M65.7682 23.5919C45.9658 15.2414 31.8759 11.0027 37.7354 18.5443C45.7596 28.872 48.0687 34.3793 34.3834 31.7754C20.698 29.1715 16.016 31.0449 13.0098 38.2674" stroke="#BEBEBE" stroke-width="0.0444444" stroke-miterlimit="10"/>
<path d="M-46.4323 48.9434C-26.6299 57.294 -12.5399 61.5327 -18.3994 53.991C-26.4237 43.6634 -28.7328 38.156 -15.0474 40.7599C-1.36208 43.3638 3.31992 41.4905 6.32617 34.2679" stroke="#BEBEBE" stroke-width="0.0444444" stroke-miterlimit="10"/>
<path d="M65.5521 24.6497C45.7057 16.0467 30.8121 10.9969 36.6717 18.3224C45.0504 28.7971 49.1857 35.0369 35.5005 32.433C21.8154 29.8292 17.1332 31.7025 14.127 38.925" stroke="#BEBEBE" stroke-width="0.0444444" stroke-miterlimit="10"/>
<path d="M-46.2181 47.8856C-26.3718 56.4885 -11.4781 61.5383 -17.3378 54.2128C-25.7164 43.7381 -29.8517 37.4984 -16.1666 40.1023C-2.48139 42.7061 2.20078 40.8328 5.20703 33.6103" stroke="#BEBEBE" stroke-width="0.0444444" stroke-miterlimit="10"/>
<path d="M65.3383 25.7075C45.4478 16.8523 29.7557 10.9901 35.6103 18.1008C44.3535 28.7201 50.305 35.6946 36.6197 33.0907C22.9345 30.4869 18.2523 32.3602 15.2461 39.5828" stroke="#BEBEBE" stroke-width="0.0444444" stroke-miterlimit="10"/>
<path d="M-46.0023 46.8277C-26.1119 55.683 -10.4198 61.5452 -16.2743 54.4345C-25.0176 43.8151 -30.9691 36.8406 -17.2837 39.4445C-3.59857 42.0483 1.0836 40.1751 4.08985 32.9525" stroke="#BEBEBE" stroke-width="0.0444444" stroke-miterlimit="10"/>
<path d="M65.1223 26.7654C45.1879 17.6578 28.7022 10.9819 34.5468 17.8791C43.666 28.6406 51.4222 36.3523 37.7369 33.7485C24.0517 31.1447 19.3695 33.0179 16.3633 40.2405" stroke="#BEBEBE" stroke-width="0.0444444" stroke-miterlimit="10"/>
<path d="M-45.7864 45.7699C-25.852 54.8776 -9.36628 61.5534 -15.2109 54.6563C-24.3301 43.8948 -32.0863 36.183 -18.4009 38.7868C-4.71576 41.3907 -0.0335908 39.5174 2.97266 32.2948" stroke="#BEBEBE" stroke-width="0.0444444" stroke-miterlimit="10"/>
<path d="M64.9063 27.8234C44.928 18.4634 27.653 10.9726 33.4832 17.6575C42.9901 28.5582 52.5392 37.0102 38.8541 34.4064C25.1689 31.8026 20.4867 33.6758 17.4805 40.8984" stroke="#BEBEBE" stroke-width="0.0444444" stroke-miterlimit="10"/>
<path d="M-45.5704 44.7119C-25.5921 54.0719 -8.31708 61.5627 -14.1473 54.8778C-23.6541 43.977 -33.2033 35.5251 -19.5181 38.1289C-5.83295 40.7327 -1.15078 38.8595 1.85547 31.6369" stroke="#BEBEBE" stroke-width="0.0444444" stroke-miterlimit="10"/>
<path d="M64.6925 28.881C44.6701 19.2687 26.6099 10.9615 32.4217 17.4356C42.329 28.4722 53.6584 37.6677 39.9732 35.0638C26.288 32.46 21.6059 34.3333 18.5996 41.5558" stroke="#BEBEBE" stroke-width="0.0444444" stroke-miterlimit="10"/>
<path d="M-45.3566 43.6543C-25.3342 53.2666 -7.27398 61.5739 -13.0858 55.0998C-22.9931 44.0632 -34.3224 34.8676 -20.6373 37.4715C-6.95209 40.0753 -2.26992 38.2021 0.73633 30.9795" stroke="#BEBEBE" stroke-width="0.0444444" stroke-miterlimit="10"/>
</g>
</g>
<defs>
<clipPath id="clip0_2057_241">
<rect width="64" height="51" fill="white" transform="translate(0 0.555542)"/>
</clipPath>
</defs>
</svg>
