<svg width="118" height="22" viewBox="0 0 118 22" fill="none" xmlns="http://www.w3.org/2000/svg">
<g clip-path="url(#clip0_2057_190)">
<g style="mix-blend-mode:multiply" opacity="0.7">
<path d="M26.2416 -23.579C24.8948 -24.3717 23.6879 -25.343 22.5369 -26.3929H40.1613C37.9329 -25.4144 35.7745 -24.2789 33.595 -23.2005C31.0308 -21.9257 28.6275 -22.1792 26.2416 -23.579Z" fill="url(#paint0_linear_2057_190)"/>
<path d="M108.84 30.7623C107.286 28.634 106.195 26.2451 105.167 23.8348C104.037 21.1817 103.519 18.3821 103.561 15.4897C103.571 14.8077 103.603 14.1149 103.708 13.4436C103.865 12.4438 104.131 11.4689 104.698 10.6048C105.691 9.09789 107.154 8.22303 108.738 7.57313C111.733 6.34833 114.923 5.95196 118.072 5.40205C119.454 5.1628 120.842 4.95212 122.228 4.74144C122.613 4.68431 123.001 4.63789 123.389 4.59504V5.92697C121.339 6.30548 119.331 6.66614 117.341 7.06607C115.14 7.50886 112.982 8.10162 110.998 9.21573C109.371 10.1299 108.07 11.3725 107.272 13.0972C106.164 15.4933 106.08 18.0357 106.492 20.5853C106.909 23.1635 108.084 25.4667 109.354 27.6985C110.659 29.9945 112.324 32.0121 114.224 33.8296C115.525 35.0759 116.928 36.1721 118.533 36.9827C120.076 37.7612 121.703 38.2468 123.396 38.5217V40.4821H120.958C119.233 39.9037 117.61 39.0859 116.12 37.9861C114.888 37.0791 113.79 35.9829 112.6 35.0116C111.121 33.8046 109.963 32.3013 108.84 30.7623Z" fill="url(#paint1_linear_2057_190)"/>
<path d="M123.396 -7.02096C121.937 -6.74243 120.496 -6.56746 118.988 -6.76385C116.05 -7.14951 114.094 -8.82067 112.891 -11.4417C112.062 -13.2521 111.855 -15.2125 112.247 -17.1943C112.705 -19.5154 113.898 -21.4186 115.714 -22.8398C118.019 -24.6467 120.66 -24.9324 123.396 -24.5574V-22.9613C122.553 -23.0113 121.759 -23.0577 120.968 -23.0648C119.565 -23.0791 118.247 -22.6256 117.11 -21.8472C114.598 -20.1296 113.178 -17.0515 114.024 -13.702C114.867 -10.3597 117.176 -8.55642 120.461 -8.48144C121.42 -8.46001 122.382 -8.62784 123.4 -8.78139V-7.02096H123.396Z" fill="url(#paint2_linear_2057_190)"/>
<path d="M87.1119 25.8845C86.1988 23.8384 85.6986 21.6923 85.6356 19.4462C85.6076 18.5071 85.6111 17.568 85.6391 16.6288C85.6566 15.9932 85.6881 15.3505 85.7965 14.7256C86.2548 12.0153 87.1329 9.44069 88.3712 7.00537C89.2003 5.36992 90.1414 3.79517 90.9985 2.17757C92.4957 -0.650548 93.7691 -3.56794 94.4058 -6.746C94.8291 -8.85281 95.081 -10.9846 95.1299 -13.1236C95.1649 -14.7019 95.0005 -16.2873 94.8711 -17.8656C94.6997 -19.926 94.1994 -21.915 93.4018 -23.8111C93.0589 -24.6288 92.5797 -25.3823 91.845 -25.9536C91.6177 -26.1286 91.3868 -26.2714 91.1489 -26.3893H96.6482C96.6202 -23.9111 96.7217 -21.4329 96.9036 -18.9583C97.026 -17.3086 96.9455 -15.6446 96.9211 -13.9877C96.9036 -12.7807 96.8791 -11.5702 96.7741 -10.3668C96.6342 -8.74925 96.4628 -7.13522 96.2144 -5.53191C95.6932 -2.15745 94.4758 0.96348 92.7861 3.90587C91.4253 6.27334 89.9385 8.56583 88.8995 11.1154C87.9444 13.465 87.3637 15.9039 87.2798 18.4392C87.2413 19.5605 87.4372 20.6889 87.5387 21.8137C87.7066 23.6634 88.3503 25.3739 89.1828 26.9879C90.0469 28.6662 91.0439 30.2766 92.0165 31.8942C93.7446 34.7652 95.4938 37.6219 97.2324 40.4857H95.5427C93.986 37.8254 92.4363 35.1616 90.8235 32.5334C89.5012 30.3695 88.1509 28.2163 87.1119 25.8845Z" fill="url(#paint3_linear_2057_190)"/>
<path d="M95.6967 27.6056C94.1959 25.331 93.6047 22.8135 94.3288 20.1033C94.7207 18.6428 95.3433 17.293 96.7881 16.5681C97.5893 16.1682 98.6387 16.386 99.1844 17.1002C99.4958 17.5073 99.7862 17.9465 99.9996 18.4107C100.804 20.1783 101.567 21.9637 102.354 23.7384C102.942 25.0632 103.603 26.3558 104.131 27.7056C105.544 31.3086 107.836 34.2331 110.802 36.5899C112.471 37.9147 114.133 39.2645 115.906 40.4821H103.547C102.644 38.0897 101.497 35.8257 100.014 33.7368C98.5653 31.7014 97.075 29.691 95.6967 27.6056Z" fill="url(#paint4_linear_2057_190)"/>
<path d="M71.457 36.2721C73.479 37.097 74.8888 38.6075 75.9453 40.4893H71.9048C70.9708 39.868 69.6624 39.7573 68.7598 40.4893H64.2715C64.5339 39.4645 64.9432 38.511 65.6813 37.6719C67.1856 35.9579 69.3336 35.4044 71.457 36.2721Z" fill="url(#paint5_linear_2057_190)"/>
<path d="M90.0084 25.3846C88.9974 22.9492 88.7945 20.3675 89.1164 17.7286C89.3543 15.7861 89.8265 13.915 90.7291 12.2117C91.838 10.1192 93.0659 8.08734 94.3218 6.07695C95.9066 3.53807 97.082 0.838499 97.5193 -2.13602C97.8866 -4.62491 98.149 -7.13522 98.3554 -9.64196C98.4988 -11.3881 98.4708 -13.1521 98.5163 -14.9054C98.5653 -16.8515 98.5688 -18.7976 98.6702 -20.7402C98.7367 -22.0543 98.8626 -23.379 99.0935 -24.6717C99.1985 -25.2645 99.3384 -25.8394 99.5063 -26.3929H102.109C101.906 -25.9786 101.721 -25.5537 101.549 -25.1181C100.647 -22.8184 100.36 -20.3902 100.164 -17.9513C100.056 -16.6051 100.042 -15.2518 100.017 -13.902C99.9576 -10.4097 99.8946 -6.9174 99.8806 -3.42153C99.8736 -1.33615 99.7897 0.734944 99.4538 2.79533C99.188 4.44149 98.7542 6.03052 97.7676 7.39459C96.97 8.49798 96.1479 9.58353 95.2874 10.6369C93.1709 13.2258 91.6142 16.0396 91.2923 19.4962C91.1384 21.1531 91.2958 22.7314 91.7086 24.299C92.3593 26.7665 93.7516 28.8554 95.1439 30.9265C97.0715 33.7904 99.02 36.6399 100.643 39.7037C100.78 39.9608 100.909 40.2215 101.039 40.4893H98.8626C98.5093 39.7965 98.149 39.1074 97.7397 38.4503C96.0045 35.6436 94.1889 32.8869 92.4782 30.0624C91.5652 28.5555 90.6801 27.0093 90.0084 25.3846Z" fill="url(#paint6_linear_2057_190)"/>
<path d="M63.4844 32.9548C65.7163 30.8373 68.326 30.2267 71.1876 31.3015C73.4301 32.1442 75.2002 33.7154 76.603 35.6758C77.4391 36.847 78.2122 38.0718 78.9434 39.3181C79.1602 39.6894 79.3457 40.0786 79.5241 40.4893H77.7679C76.7184 38.2789 75.3646 36.2971 73.3531 34.8331C72.0342 33.8725 70.5615 33.2797 68.9592 33.269C67.294 33.2583 65.7898 33.9011 64.5934 35.1187C63.2675 36.4685 62.3895 38.0861 62.0501 39.9858C62.0186 40.1572 61.9871 40.325 61.9557 40.4929H59.8707C60.21 37.5469 61.34 34.9902 63.4844 32.9548Z" fill="url(#paint7_linear_2057_190)"/>
<path d="M123.396 36.3614C123.267 36.3649 123.148 36.3649 123.029 36.3471C122.619 36.2935 122.207 36.2185 121.804 36.1257C117.921 35.2651 115.105 32.8012 112.691 29.7589C111.331 28.0449 110.278 26.1344 109.354 24.1383C108.609 22.5279 108.256 20.8246 108.2 19.0713C108.172 18.1857 108.315 17.2859 108.469 16.411C108.794 14.572 109.658 12.9758 110.953 11.6939C112.156 10.5012 113.618 9.66923 115.214 9.08718C117.61 8.21232 120.097 7.74811 122.585 7.26247C122.847 7.21248 123.12 7.18391 123.396 7.16249V8.63011C123.337 8.63725 123.277 8.64439 123.218 8.65867C121.577 9.0229 119.926 9.34785 118.31 9.79421C116.382 10.3263 114.559 11.1476 113.055 12.5331C111.4 14.0542 110.505 16.0182 110.253 18.2393C109.998 20.5103 110.435 22.6993 111.509 24.7204C112.702 26.97 114.133 29.0447 115.994 30.7873C117.211 31.9264 118.561 32.8262 120.118 33.4047C121.185 33.8011 122.27 34.1046 123.396 34.1332V36.3614Z" fill="url(#paint8_linear_2057_190)"/>
<path d="M123.396 32.1978C122.081 32.1442 120.895 31.8085 119.751 31.2943C117.288 30.1945 115.486 28.3448 114.035 26.0844C112.6 23.8455 111.565 21.5209 111.939 18.7214C112.261 16.3003 113.36 14.3828 115.252 12.9687C117.526 11.2654 120.181 10.5369 122.927 10.112C123.081 10.087 123.239 10.0656 123.396 10.0442V11.7582C123.295 11.7653 123.197 11.7725 123.106 11.7903C122.969 11.8189 122.843 11.8903 122.71 11.9117C120.405 12.251 118.268 13.0365 116.438 14.5327C115.004 15.7004 114.108 17.2573 113.895 19.1141C113.681 21.0031 114.038 22.7885 115.07 24.449C116.634 26.9629 118.624 28.884 121.504 29.6732C122.116 29.841 122.752 29.916 123.396 30.0088V32.1978Z" fill="url(#paint9_linear_2057_190)"/>
<path d="M121.038 24.4919C121.78 24.9025 122.571 25.0882 123.396 25.1275V27.9163C122.588 27.7556 121.815 27.6306 121.084 27.3807C119.363 26.7915 118.026 25.6202 116.959 24.1526C115.424 22.0351 115.259 19.3498 116.77 17.1502C117.722 15.7647 119.009 14.8363 120.549 14.2649C121.455 13.9257 122.375 13.6293 123.396 13.5615V16.0896C121.717 16.2753 120.293 17.0109 119.244 18.3857C118.436 19.4427 118.264 20.6603 118.687 21.9351C119.09 23.1385 119.975 23.9027 121.038 24.4919Z" fill="url(#paint10_linear_2057_190)"/>
<path d="M103.83 -21.7115C103.082 -19.4618 102.907 -17.1051 102.826 -14.7519C102.784 -13.5485 102.886 -12.338 102.956 -11.1346C103.022 -9.98477 103.138 -8.83495 103.228 -7.68514C103.382 -5.73545 103.802 -3.83932 104.512 -2.0289C105.348 0.106474 106.786 1.59909 109.022 2.28827C110.729 2.81319 112.481 2.82747 114.22 2.9453C115.486 3.031 116.77 2.90245 118.044 2.81675C118.988 2.75605 119.926 2.63107 120.863 2.50252C121.699 2.38468 122.536 2.24542 123.393 2.10258V3.4488C121.661 3.70947 119.943 3.98442 118.222 4.19867C116.298 4.43792 114.367 4.63432 112.432 4.76287C110.764 4.87714 109.088 4.93427 107.416 4.89856C106.45 4.87713 105.495 4.64503 104.656 4.05941C103.459 3.22383 102.963 1.95975 102.581 0.631388C101.997 -1.41471 101.805 -3.53223 101.609 -5.63904C101.437 -7.49945 101.325 -9.37058 101.329 -11.2381C101.336 -13.4878 101.5 -15.7338 101.584 -17.9835C101.654 -19.8832 102.071 -21.7043 102.704 -23.4862C103.075 -24.5324 103.536 -25.5001 104.075 -26.3964H106.213C105.16 -24.9717 104.39 -23.4005 103.83 -21.7115Z" fill="url(#paint11_linear_2057_190)"/>
<path d="M120.094 -25.8251C118.257 -25.6001 116.592 -25.0502 115.095 -23.9361C113.314 -22.6113 112.097 -20.8652 111.331 -18.7798C110.673 -16.9836 110.648 -15.1339 110.928 -13.2664C111.296 -10.8132 112.321 -8.74925 114.234 -7.14237C116.564 -5.18554 119.279 -5.16411 122.053 -5.39979C122.497 -5.43907 122.938 -5.5212 123.393 -5.61047V-4.08571C122.126 -3.92502 120.898 -3.75362 119.66 -3.67863C118.866 -3.63221 118.051 -3.81433 117.253 -3.94288C115.049 -4.29639 113.192 -5.37836 111.817 -7.12094C109.378 -10.2169 108.85 -13.8591 109.508 -17.655C110.022 -20.6259 111.628 -23.0077 113.972 -24.8502C114.787 -25.4894 115.651 -26.0108 116.585 -26.3964H123.393V-25.7215C122.305 -25.8608 121.224 -25.9643 120.094 -25.8251Z" fill="url(#paint12_linear_2057_190)"/>
<path d="M119.628 -13.8806C120.622 -13.2735 122.217 -13.2735 123.396 -13.9877V-10.7346C122.07 -10.3383 120.716 -10.1812 119.352 -10.5704C117.285 -11.1631 115.714 -12.9022 115.57 -15.4339C115.417 -18.1549 117.078 -20.251 119.261 -21.0473C120.646 -21.5543 122.018 -21.5686 123.396 -21.3401V-18.5405C122.123 -19.0655 120.097 -18.9226 119.069 -17.655C118.068 -16.4266 118.565 -14.5305 119.628 -13.8806Z" fill="url(#paint13_linear_2057_190)"/>
<path d="M109.127 -8.89208C110.173 -6.2675 111.901 -4.32496 114.556 -3.28584C115.556 -2.89662 116.567 -2.62523 117.62 -2.55382C118.659 -2.48597 119.712 -2.44669 120.748 -2.52168C121.626 -2.58595 122.501 -2.73593 123.396 -2.87876V-1.4897C122.466 -1.32187 121.532 -1.13618 120.597 -1.10405C118.841 -1.05048 117.075 -0.954072 115.319 -1.35044C112.695 -1.93963 110.526 -3.20371 109.004 -5.4962C107.36 -7.96723 106.842 -10.7954 106.657 -13.6985C106.594 -14.7054 106.723 -15.7303 106.783 -16.7444C106.87 -18.2656 107.273 -19.7046 107.885 -21.0901C108.801 -23.1648 110.082 -24.9467 111.824 -26.3929H114.133C111.806 -24.9502 110.085 -22.7934 108.962 -19.9617C108.182 -17.9942 107.948 -15.9481 108.112 -13.8163C108.238 -12.1166 108.504 -10.4668 109.127 -8.89208Z" fill="url(#paint14_linear_2057_190)"/>
<path d="M123.396 1.02062C121.654 1.24558 119.943 1.50625 118.229 1.61338C115.959 1.75621 113.699 1.55267 111.477 0.959909C108.99 0.29573 107.196 -1.17546 106.034 -3.50723C104.796 -6.00326 104.302 -8.70283 104.159 -11.4345C104.019 -14.0698 103.949 -16.7373 104.533 -19.3547C105.121 -21.9936 106.237 -24.3575 107.965 -26.3893H110.036C109.609 -25.9679 109.204 -25.5144 108.815 -25.0288C106.688 -22.3578 105.691 -19.269 105.485 -15.9052C105.32 -13.1914 105.548 -10.4918 106.31 -7.86368C106.933 -5.71759 107.839 -3.75362 109.599 -2.29314C111.502 -0.711251 113.748 -0.0684973 116.113 0.0886204C118.425 0.245738 120.744 0.177892 123.036 -0.307745C123.155 -0.332741 123.274 -0.350597 123.393 -0.36488V1.02062H123.396Z" fill="url(#paint15_linear_2057_190)"/>
<path d="M42.7606 26.6129C43.3483 25.1275 43.971 23.6491 44.4257 22.1172C45.0799 19.914 45.5732 17.6679 45.7306 15.3576C45.853 13.5436 46.0769 11.7368 46.1224 9.92276C46.1679 8.12305 45.993 6.31619 46.014 4.51291C46.0594 1.02775 45.8076 -2.46454 46.2658 -5.94256C46.5177 -7.86725 46.9305 -9.74195 47.7211 -11.5024C48.8056 -13.9198 50.3588 -15.9695 52.3424 -17.7264C54.2174 -19.3868 56.3374 -20.5474 58.6183 -21.4651C62.4559 -23.0077 66.479 -23.8147 70.509 -24.6003C71.9293 -24.8788 73.3601 -25.1145 74.7769 -25.4216C75.9173 -25.668 77.0333 -26.0001 78.1283 -26.3929H85.849C84.6526 -26.1036 83.4701 -25.7322 82.2842 -25.3966C79.4926 -24.6074 76.7604 -23.6112 73.8673 -23.1862C71.457 -22.8363 69.0677 -22.3149 66.6888 -21.7686C64.394 -21.2437 62.1446 -20.5402 60.0176 -19.4832C58.237 -18.5977 56.6418 -17.4443 55.134 -16.1338C53.4653 -14.6804 52.15 -12.9629 51.111 -11.0167C49.5123 -8.01722 48.9595 -4.7249 48.6307 -1.38257C48.4768 0.192174 48.4173 1.77406 48.3438 3.35595C48.2774 4.82357 48.2494 6.2912 48.1969 7.75882C48.1619 8.72652 48.1374 9.69779 48.0535 10.6655C47.889 12.5652 47.7071 14.4613 47.4937 16.3539C47.2104 18.8856 46.5947 21.3424 45.7446 23.7348C44.7441 26.5487 43.6806 29.3411 42.6871 32.1585C41.886 34.4403 41.2703 36.7792 40.896 39.1788C40.8295 39.6144 40.749 40.0465 40.6651 40.4821H38.4052C38.5346 39.7644 38.6571 39.0788 38.804 38.4003C39.6716 34.3188 41.2283 30.4695 42.7606 26.6129Z" fill="url(#paint16_linear_2057_190)"/>
<path d="M5.50028 0.224314C8.45283 1.14202 11.0311 2.61321 12.9236 5.10924C14.9072 7.72668 15.8097 10.7905 15.9672 14.0721C16.0126 14.9862 15.8902 15.9111 15.8412 16.8324C15.7258 18.932 15.1101 20.8924 14.288 22.8028C13.5149 24.5954 12.7138 26.3844 12.0561 28.2234C10.6777 32.0656 10.111 36.065 10.1005 40.1501C10.1005 40.2643 10.1005 40.375 10.1005 40.4893H-3.81567C-3.47283 39.4323 -3.1265 38.4111 -2.87463 37.3684C-2.5248 35.915 -2.19946 34.4331 -2.07352 32.9476C-1.96157 31.6121 -2.02804 30.2374 -2.20995 28.9054C-2.39186 27.5628 -2.68572 26.1987 -3.16498 24.9382C-3.81567 23.2242 -4.64126 21.5816 -5.40039 19.9069V15.2433C-4.60628 17.293 -3.68273 19.2748 -2.55978 21.1638C-1.59425 22.7886 -0.618229 24.4133 0.266838 26.0844C1.12392 27.6985 1.86206 29.3804 2.67366 31.023C2.93253 31.5479 3.2089 32.0799 3.55873 32.5441C4.017 33.1548 4.4333 33.1797 4.96154 32.6156C5.51777 32.0192 6.04951 31.3765 6.49729 30.6909C8.15548 28.1341 9.77868 25.556 11.4124 22.9814C12.8012 20.7924 13.4519 18.3536 13.6373 15.7825C13.7387 14.3613 13.5498 12.9508 13.2245 11.5654C12.3429 7.80167 10.237 4.99498 6.82963 3.29168C4.07647 1.9169 1.14141 1.42055 -1.8986 1.94904C-3.22096 2.17757 -4.45235 2.6275 -5.40039 3.53807V0.0279179C-4.45235 -0.322026 -3.46934 -0.539849 -2.46533 -0.579129C0.22136 -0.686254 2.88006 -0.589841 5.50028 0.224314Z" fill="url(#paint17_linear_2057_190)"/>
<path d="M58.8317 33.1012C60.1121 30.7837 61.7493 28.7912 64.0022 27.395C66.5139 25.8381 69.0782 25.8523 71.6459 27.2521C74.0912 28.5841 75.9453 30.5944 77.572 32.8155C78.751 34.426 79.8354 36.1221 80.8604 37.8433C81.3607 38.6824 81.7805 39.568 82.2178 40.4893H80.7975C79.9754 38.6075 78.9049 36.8649 77.7329 35.1901C76.3826 33.2583 74.8714 31.4622 72.8598 30.2052C71.506 29.3589 70.0612 28.6912 68.438 28.6483C66.0347 28.5841 64.0896 29.6982 62.4349 31.33C60.8992 32.8441 59.8322 34.6902 59.0976 36.7506C58.6638 37.9683 58.4014 39.2181 58.223 40.4893H56.5333C56.5648 40.0679 56.5998 39.6573 56.6698 39.2502C57.0441 37.0756 57.7717 35.0223 58.8317 33.1012Z" fill="url(#paint18_linear_2057_190)"/>
<path d="M-4.41737 9.10503C-4.57479 12.3259 -3.44835 15.1612 -1.95108 17.9108C-1.07301 19.5212 -0.0025304 20.9531 1.31982 22.1994C2.37281 23.1885 3.54823 23.8705 5.0525 23.7884C6.30139 23.7205 7.31939 23.1528 8.20445 22.3243C9.7437 20.8817 10.6323 19.0677 10.9401 16.9645C11.0381 16.2896 11.0765 15.604 11.143 14.9255C11.1815 12.6795 10.5553 10.6584 9.32391 8.81937C7.83363 6.59472 5.75565 5.2735 3.2054 4.69145C1.35481 4.26652 -0.471302 4.28795 -2.16797 5.27708C-3.60227 6.10909 -4.33691 7.41959 -4.41737 9.10503ZM-0.443315 12.2153C-0.404834 11.6903 -0.43282 11.2975 -0.338367 10.9405C0.140899 9.11574 1.55421 8.62297 3.2159 9.00148C6.30838 9.70494 8.1205 13.515 6.79814 16.4717C5.95505 18.3536 4.34234 18.8249 2.85557 17.8858C0.795079 16.5824 -0.257906 14.5542 -0.443315 12.2153Z" fill="url(#paint19_linear_2057_190)"/>
<path d="M-3.89962 -4.59277C-2.60176 -4.57492 -1.3004 -4.52493 -0.00602867 -4.44994C1.19039 -4.38209 2.40079 -4.34281 3.57972 -4.14999C5.81512 -3.77862 8.03304 -3.31798 10.1635 -2.46811C12.9236 -1.36829 15.257 0.295731 16.9362 2.7989C18.9827 5.84841 19.8118 9.31928 20.0217 12.9508C20.0951 14.1971 19.9517 15.4576 19.9027 16.7145C19.8398 18.325 19.5144 19.8962 19.0107 21.4102C17.9087 24.7311 16.6633 28.0056 16.1841 31.5014C15.9847 32.9476 15.7887 34.3974 15.7188 35.8508C15.6453 37.3934 15.6908 38.9395 15.6978 40.4857H13.0041C13.0426 39.9608 13.0811 39.4609 13.0776 38.961C13.0636 36.7327 13.2875 34.5331 13.6268 32.3335C14.0921 29.3197 14.9072 26.413 16.0756 23.617C17.6498 19.8497 18.2375 15.9539 17.7198 11.8832C17.4224 9.53353 16.7613 7.33032 15.6033 5.26636C14.2705 2.89174 12.3814 1.14202 10.0166 -0.0899227C6.40633 -1.97176 2.48475 -2.50025 -1.4928 -2.61452C-2.79067 -2.6538 -4.09203 -2.4824 -5.39689 -2.33956V-4.56064C-4.89314 -4.58206 -4.39638 -4.59991 -3.89962 -4.59277Z" fill="url(#paint20_linear_2057_190)"/>
<path d="M-1.52781 -20.9045C-0.0445321 -21.0545 1.28482 -21.5651 1.98797 -23.0756C2.49523 -24.1611 2.33081 -25.2502 1.932 -26.3108C1.92151 -26.3393 1.91101 -26.3643 1.89702 -26.3929H6.26288C6.68967 -25.4788 7.01501 -24.5075 7.20042 -23.4505C7.55025 -21.4615 6.45529 -19.3476 4.82159 -18.462C3.19838 -17.5836 1.45274 -17.3265 -0.331392 -17.2372C-1.20596 -17.1944 -2.10153 -17.2479 -2.9691 -17.3801C-3.7842 -17.505 -4.59231 -17.6907 -5.39691 -17.8871V-21.358C-4.13403 -20.8938 -2.84666 -20.7688 -1.52781 -20.9045Z" fill="url(#paint21_linear_2057_190)"/>
<path d="M1.35129 -11.1918C3.93302 -11.1846 6.51826 -11.2275 9.09999 -11.331C10.7617 -11.3953 12.4199 -11.5596 14.0711 -11.7595C15.4739 -11.9274 16.8417 -12.2916 18.1151 -12.9415C19.6159 -13.7092 20.5534 -15.2982 20.3575 -16.723C20.1826 -18.0192 19.8153 -19.2548 19.2485 -20.4403C18.241 -22.5399 17.0201 -24.5075 15.6803 -26.3929H18.9792C19.385 -25.9073 19.7943 -25.4216 20.2071 -24.9396C21.2635 -23.7076 22.341 -22.5007 23.443 -21.3116C24.5274 -20.1403 25.6714 -19.0262 27.0672 -18.2371C27.9488 -17.7407 28.9318 -17.455 29.9148 -17.4979C31.1777 -17.5515 32.3286 -18.0799 33.4096 -18.7727C35.8024 -20.3117 38.1953 -21.8508 40.6231 -23.3362C42.6871 -24.6003 44.8665 -25.593 47.1159 -26.3929H54.9276C52.979 -25.8608 51.048 -25.2538 49.1589 -24.5003C45.804 -23.1648 42.7465 -21.3151 40.0703 -18.8655C37.5306 -16.5373 35.5121 -13.7878 34.2772 -10.5204C33.8224 -9.31706 33.4761 -8.05655 33.2417 -6.78889C33.0108 -5.53552 33.5181 -4.37857 34.0533 -3.25732C35.0958 -1.07195 36.2362 1.07056 37.1108 3.32377C38.6151 7.19815 39.4686 11.2154 39.1118 15.4433C38.9859 16.9359 38.7655 18.3856 38.2512 19.7818C37.8664 20.8317 37.3802 21.8315 36.5231 22.5814C35.4526 23.5205 34.3192 23.6384 33.2732 22.5028C32.9408 22.1422 32.619 21.7672 32.3356 21.3637C31.5065 20.1889 30.3486 20.3032 29.5475 21.1138C27.7914 22.8814 26.5704 24.9739 25.7763 27.3413C25.1082 29.3303 24.5939 31.3586 24.5379 33.4654C24.482 35.59 24.5205 37.7183 24.5274 39.8429C24.5274 40.0572 24.5379 40.2679 24.5519 40.4821H22.1136C22.0262 39.3501 21.9282 38.2467 21.9282 37.1433C21.9317 35.7043 22.0437 34.2581 22.2011 32.8262C22.355 31.4264 22.5859 30.0338 22.8518 28.6519C23.303 26.3058 24.2336 24.124 25.1466 21.9351C26.3116 19.1391 27.0182 16.2146 27.2106 13.1936C27.3506 10.9725 27.1896 8.75147 26.8363 6.53754C26.3815 3.68086 25.7134 0.895588 24.5904 -1.76827C24.0517 -3.04664 23.3485 -4.22145 22.4425 -5.24628C21.5574 -6.24612 20.424 -6.9103 19.1891 -7.38166C17.4854 -8.03155 15.7188 -8.36721 13.9136 -8.52433C12.5563 -8.64574 11.2025 -8.82428 9.84513 -8.93855C8.41433 -9.05996 6.98003 -9.14209 5.54224 -9.22422C3.68814 -9.33134 1.83405 -9.42061 -0.0200439 -9.51703C-0.992568 -9.56702 -1.96859 -9.6063 -2.94111 -9.667C-3.42388 -9.69557 -3.91014 -9.74556 -4.38941 -9.80984C-4.72524 -9.85269 -5.06108 -9.90268 -5.39691 -9.95267V-11.8274C-4.48036 -11.6988 -3.57431 -11.5738 -2.66475 -11.481C-1.3284 -11.3346 0.0114411 -11.1953 1.35129 -11.1918Z" fill="url(#paint22_linear_2057_190)"/>
<path d="M4.04495 -15.3018C5.62967 -15.5482 7.17592 -15.8981 8.60322 -16.6659C9.95706 -17.3943 10.9086 -18.4085 11.1675 -20.0582C11.3424 -21.183 11.1675 -22.2221 10.8596 -23.2577C10.5273 -24.3682 10.083 -25.4038 9.55475 -26.3929H12.7522C14.0885 -24.2754 15.2325 -22.0757 15.4529 -19.4547C15.5333 -18.4834 15.3969 -17.5907 14.8826 -16.7587C14.0955 -15.4839 12.8711 -14.8162 11.5593 -14.302C9.07199 -13.32 6.44477 -13.0807 3.81756 -12.9593C2.07891 -12.8772 0.329764 -12.9736 -1.40889 -13.095C-2.74173 -13.1879 -4.06758 -13.395 -5.39344 -13.5592V-15.6089C-3.80171 -15.2768 -2.24148 -15.0804 -0.667248 -15.0376C0.906982 -14.9912 2.47771 -15.0554 4.04495 -15.3018Z" fill="url(#paint23_linear_2057_190)"/>
<path d="M3.59371 -7.59586C5.29038 -7.43161 6.98005 -7.22807 8.67322 -7.03167C10.9821 -6.76028 13.2245 -6.22466 15.3934 -5.33908C18.0486 -4.25711 20.0602 -2.46454 21.4735 0.0564823C23.3206 3.35238 24.0937 6.96966 24.3526 10.6905C24.496 12.7366 24.44 14.8005 24.1357 16.8574C23.7893 19.2034 23.1596 21.4495 22.334 23.6491C20.9382 27.3735 20.1441 31.2265 20.0427 35.2187C20.0357 35.4794 20.0077 35.74 20.0007 36.0007C19.9727 36.8292 19.9167 37.654 19.9342 38.4825C19.9482 39.1466 19.9902 39.8072 20.0357 40.4857H17.7863C17.7478 39.9501 17.7163 39.443 17.7198 38.9324C17.7303 37.7254 17.7828 36.5149 17.8562 35.3115C17.9297 34.0653 17.9717 32.8084 18.1536 31.5764C18.5104 29.1375 19.0177 26.7201 19.8957 24.4133C21.0887 21.2745 21.9003 18.0465 22.0227 14.6827C22.0822 13.0115 21.9457 11.319 21.7288 9.65851C21.4805 7.74097 20.9767 5.86983 20.2316 4.07726C19.1821 1.56338 17.6638 -0.571989 15.4319 -2.13245C13.3889 -3.5608 11.1045 -4.41066 8.70821 -4.91415C6.90309 -5.29266 5.06999 -5.54976 3.24038 -5.78187C1.65916 -5.98541 0.0639364 -6.11396 -1.52779 -6.21037C-2.81865 -6.28893 -4.10952 -6.31036 -5.39689 -6.34606V-8.28147C-3.68973 -8.15292 -1.98256 -8.01723 -0.275397 -7.88867C1.01197 -7.79226 2.30634 -7.72084 3.59371 -7.59586Z" fill="url(#paint24_linear_2057_190)"/>
<path d="M-5.39689 36.7935V23.6848C-3.87514 28.0627 -4.07454 32.4299 -5.39689 36.7935Z" fill="url(#paint25_linear_2057_190)"/>
<path d="M50.9186 29.8374C51.7651 27.7199 52.7447 25.6559 53.6262 23.5527C55.4873 19.107 56.7572 14.4577 58.153 9.85491C59.129 6.634 60.168 3.4488 61.8402 0.513553C63.2151 -1.89677 64.9607 -3.96073 67.2696 -5.47477C69.526 -6.96025 71.9503 -7.84225 74.6999 -7.31734C76.9108 -6.89597 78.0198 -5.59261 78.1527 -3.15372C78.2087 -2.12174 78.1807 -1.07905 78.1562 -0.0435024C78.1353 0.831357 78.0723 1.70265 78.0163 2.57751C77.8834 4.62718 77.684 6.67328 77.621 8.72652C77.572 10.262 77.67 11.8082 77.7504 13.3436C77.8064 14.4685 77.8659 15.6076 78.0548 16.7145C78.3032 18.1607 78.6005 19.6105 79.0273 21.0103C79.5101 22.5922 80.0383 24.1812 80.766 25.656C81.6965 27.5342 82.837 29.3054 83.9004 31.1158C85.3522 33.5904 86.8285 36.0471 88.2663 38.5289C88.6371 39.1716 88.9799 39.8287 89.3193 40.4964H88.0179C87.5631 39.6109 87.1049 38.7217 86.6011 37.8647C84.6246 34.5081 82.6585 31.1479 80.6155 27.8342C78.8069 24.8989 77.4846 21.7601 76.687 18.4071C76.1657 16.2146 75.7809 13.9864 75.4031 11.7617C75.0743 9.83706 74.8644 7.89451 74.56 5.96625C74.3081 4.37722 73.9933 2.80604 73.2097 1.37413C72.6569 0.363575 71.2961 -0.482717 70.2746 -0.343454C69.3056 -0.211332 68.396 0.113615 67.5494 0.649244C65.7653 1.78121 64.5094 3.40952 63.411 5.18066C61.7108 7.91594 60.5703 10.919 59.3879 13.9043C58.1915 16.9252 57.0091 19.9533 55.7287 22.9385C54.6302 25.4988 53.3499 27.9806 52.2479 30.5409C50.964 33.5261 50.0755 36.6363 49.7292 39.893C49.7082 40.0965 49.6837 40.2965 49.6557 40.5H48.1479C48.2599 39.7144 48.3858 38.9288 48.5117 38.1432C48.977 35.2651 49.8481 32.5156 50.9186 29.8374Z" fill="url(#paint26_linear_2057_190)"/>
<path d="M57.6808 28.9304C58.7233 27.32 59.9686 25.8452 61.1476 24.3312C62.2495 22.9135 63.4984 21.6459 65.0097 20.6746C66.311 19.839 67.7139 19.4927 69.1656 20.1461C69.9528 20.4996 70.7539 20.971 71.3556 21.5852C72.6674 22.9171 73.9198 24.3204 75.0777 25.7952C76.6905 27.8449 78.2647 29.9374 79.727 32.1013C81.1088 34.1439 82.3577 36.2792 83.6031 38.411C83.9914 39.0752 84.3237 39.7751 84.6561 40.4929H83.3127C82.6271 39.0717 81.8679 37.6826 81.0808 36.315C79.7725 34.0403 78.2577 31.9085 76.6205 29.8589C75.1162 27.977 73.486 26.2594 71.4815 24.9382C70.4005 24.2276 69.2636 23.7063 67.9377 23.6313C66.409 23.5456 65.1286 24.1633 63.9147 24.9596C62.4839 25.8988 61.2805 27.1057 60.1855 28.4412C58.181 30.8908 56.6942 33.619 55.8966 36.7042C55.5748 37.9433 55.3544 39.2074 55.113 40.4964H53.5948C53.6577 39.6466 53.8221 38.8288 53.9796 38.0147C54.6233 34.7295 55.8861 31.7014 57.6808 28.9304Z" fill="url(#paint27_linear_2057_190)"/>
<path d="M54.7632 27.9841C56.5403 24.5561 58.3699 21.1567 60.1331 17.7215C61.368 15.3147 62.5924 12.8973 64.275 10.7798C65.1496 9.67994 66.1081 8.63011 67.469 8.09448C68.6619 7.62312 69.7149 7.86237 70.5719 8.7658C71.0757 9.29786 71.506 9.93347 71.8523 10.5869C73.2481 13.2115 74.0353 16.0932 75.0952 18.8606C75.9628 21.1317 76.8234 23.4135 78.0758 25.4953C79.5521 27.952 81.1333 30.3445 82.6236 32.7905C83.799 34.7188 84.9254 36.6792 86.0344 38.6467C86.3702 39.2466 86.6746 39.8644 86.9789 40.4857H85.716C85.4397 39.9572 85.1563 39.4323 84.887 38.8967C83.3162 35.7865 81.4446 32.8584 79.5066 29.9838C77.4111 26.8736 75.3681 23.7384 73.5175 20.4711C72.7479 19.1106 71.8103 17.8251 70.7993 16.636C69.2461 14.8113 67.504 14.4935 65.433 15.9539C64.1736 16.8431 63.1626 17.9822 62.302 19.2498C60.4829 21.9315 58.6813 24.6311 56.9461 27.3735C55.6762 29.3839 54.6337 31.5372 53.8571 33.8011C53.2484 35.5758 52.7097 37.3719 52.5243 39.2609C52.4858 39.6716 52.4263 40.0786 52.3599 40.4893H50.9046C51.027 38.3861 51.5308 36.3614 52.1325 34.3581C52.7971 32.1442 53.7032 30.0267 54.7632 27.9841Z" fill="url(#paint28_linear_2057_190)"/>
<path d="M29.1032 28.0627C30.0058 26.8772 31.2092 26.4665 32.4371 27.8377C32.563 27.977 32.654 28.1448 32.7764 28.2877C33.9309 29.6517 34.6655 30.1731 36.2712 28.5376C38.3317 26.4344 39.7065 23.8598 40.6651 21.071C41.2703 19.3141 41.6271 17.4858 41.6726 15.6111C41.7146 13.8078 41.837 12.0046 41.767 10.2049C41.7076 8.6801 41.4557 7.15891 41.2353 5.64487C40.9659 3.80588 40.6266 1.98117 40.3327 0.145752C40.0669 -1.52541 39.724 -3.19657 39.5911 -4.88201C39.4652 -6.45676 39.4407 -8.04579 39.6856 -9.63125C39.9269 -11.2096 40.3677 -12.7129 41.1024 -14.1127C42.4142 -16.6158 44.2298 -18.6762 46.4897 -20.3331C48.5747 -21.865 50.8626 -22.997 53.2659 -23.8968C56.11 -24.9609 59.0346 -25.7072 61.9766 -26.4H70.9743C67.7034 -25.6823 64.4325 -24.9752 61.172 -24.2182C58.4189 -23.5754 55.7462 -22.6327 53.2134 -21.3579C50.5407 -20.0153 48.2564 -18.162 46.4547 -15.6981C44.4922 -13.0164 43.5092 -9.98477 43.3168 -6.69601C43.1559 -3.9036 43.3623 -1.10762 43.5792 1.67765C43.6246 2.26684 43.6736 2.85246 43.7261 3.43808C43.8625 4.98426 44.0934 6.53044 44.1179 8.07662C44.1634 11.2225 44.2403 14.3756 43.7366 17.5073C43.4112 19.5141 42.9984 21.4959 42.2078 23.3563C40.784 26.7022 39.2238 29.9838 37.786 33.3226C36.9394 35.2865 36.2083 37.3005 35.4596 39.3073C35.3162 39.6894 35.2077 40.0858 35.1063 40.4786H27.1512C27.0637 39.8144 26.9798 39.1752 26.9658 38.5325C26.9308 36.7113 26.8783 34.8902 27.2177 33.0798C27.5535 31.2872 27.9838 29.5303 29.1032 28.0627Z" fill="url(#paint29_linear_2057_190)"/>
<path d="M46.5002 25.7131C47.98 21.9351 48.949 18.0322 49.4808 14.0185C49.7886 11.7082 49.9705 9.37999 50.1909 7.05893C50.3483 5.41634 50.4393 3.7666 50.6247 2.12758C50.8171 0.420707 51.013 -1.28616 51.3279 -2.9716C52.0765 -7.01738 53.6577 -10.6382 56.5648 -13.6056C58.9052 -15.9945 61.6233 -17.7585 64.6668 -19.0119C67.35 -20.1189 70.1871 -20.6473 73.0243 -21.1758C75.1267 -21.5651 77.2222 -22.0078 79.3177 -22.4363C81.8819 -22.9613 84.4007 -23.7504 87.0839 -23.479C88.8995 -23.2969 90.2918 -22.4685 91.3238 -21.0009C92.7161 -19.0226 93.1219 -16.7087 93.2793 -14.3484C93.4088 -12.4058 93.1849 -10.4704 92.8456 -8.57071C92.2858 -5.46049 91.1139 -2.56096 89.6901 0.238593C88.5147 2.55251 87.2728 4.84143 86.2303 7.21962C84.8904 10.2763 84.1348 13.4972 84.1733 16.8859C84.1908 18.4035 84.2083 19.914 84.4811 21.4031C84.9534 23.9919 85.9434 26.3844 87.2658 28.6233C89.3053 32.0763 91.3973 35.4937 93.4508 38.936C93.7516 39.4395 94.0315 39.9537 94.3148 40.4821H92.8491C92.7196 40.2358 92.5832 39.9929 92.4433 39.7537C91.0719 37.4291 89.6831 35.1116 88.3293 32.7762C87.0909 30.6409 85.8245 28.5162 84.6875 26.3237C83.3932 23.8277 82.781 21.096 82.5816 18.3C82.4626 16.6538 82.6166 14.9827 82.6935 13.3222C82.7775 11.4796 83.2393 9.70494 83.7605 7.94808C84.5301 5.36278 85.6531 2.93102 86.839 0.527835C88.0669 -1.96105 89.3123 -4.43923 90.0364 -7.14594C90.7641 -9.86336 91.1524 -12.6058 90.5157 -15.391C89.7741 -18.6405 87.815 -20.2903 84.6596 -20.4831C83.2847 -20.5688 81.8749 -20.4152 80.5106 -20.1938C78.0758 -19.7975 75.662 -19.2868 73.2446 -18.7834C69.7918 -18.062 66.4685 -16.9801 63.397 -15.1554C61.347 -13.9341 59.5383 -12.4201 58.0131 -10.5954C55.8861 -8.05293 54.5638 -5.05699 53.8012 -1.82179C53.3569 0.0707649 53.028 1.99189 52.6887 3.90587C52.4963 4.99141 52.3843 6.0948 52.2479 7.19105C52.0905 8.47656 51.9925 9.76564 51.7966 11.044C51.5098 12.9223 51.2299 14.8041 50.8276 16.6574C50.3728 18.7428 49.9111 20.8424 49.2219 22.8564C47.8506 26.8808 46.1084 30.7766 45.0939 34.9295C44.6496 36.747 44.2893 38.5932 44.0024 40.4464C43.9989 40.4607 43.9989 40.4714 43.9955 40.4821H42.2743C42.4317 39.443 42.5751 38.4039 42.7955 37.3791C43.6701 33.3761 45.0135 29.516 46.5002 25.7131Z" fill="url(#paint30_linear_2057_190)"/>
<path d="M48.4208 28.7555C49.5542 25.7774 50.8556 22.8564 51.6357 19.7498C52.2234 17.4108 52.7866 15.0612 53.2624 12.6973C53.8396 9.82278 54.2524 6.91253 54.8401 4.04156C55.5328 0.674239 56.4284 -2.6288 58.139 -5.64618C59.3739 -7.82797 60.9342 -9.71695 62.8722 -11.256C65.5169 -13.3592 68.5045 -14.7983 71.7649 -15.5982C73.9548 -16.1338 76.1727 -16.5409 78.3731 -17.0408C80.1957 -17.455 82.0253 -17.655 83.8724 -17.3086C85.3242 -17.0336 86.4682 -16.2659 87.1853 -14.9018C88.1963 -12.9807 88.1089 -10.9346 87.773 -8.89566C87.3882 -6.56032 86.5102 -4.37138 85.5656 -2.21815C84.2782 0.709948 82.9839 3.63805 82.1688 6.75184C81.5566 9.07647 81.1648 11.4368 81.1088 13.8436C81.0598 15.8504 81.1403 17.8429 81.5006 19.8355C81.8609 21.828 82.3647 23.7598 83.2113 25.5881C84.5511 28.4805 86.2513 31.1622 87.899 33.8761C89.1479 35.9293 90.3233 38.0254 91.5162 40.1108C91.5862 40.2358 91.6561 40.3607 91.7226 40.4893H90.3618C90.2813 40.3322 90.1974 40.1751 90.1099 40.0215C89.1899 38.3789 88.2838 36.7292 87.3323 35.108C85.7895 32.4727 84.1698 29.8874 82.669 27.2307C80.4441 23.292 79.5661 18.957 79.3387 14.4756C79.2267 12.276 79.4261 10.087 79.7235 7.89808C80.0173 5.74843 80.4791 3.64162 81.0808 1.56695C81.7175 -0.643407 82.4451 -2.8252 83.0364 -5.04627C83.4317 -6.53532 83.785 -8.03865 83.5471 -9.63482C83.2498 -11.6631 82.0254 -12.9022 80.0103 -12.92C78.9469 -12.9307 77.8729 -12.92 76.8269 -12.7665C75.0043 -12.5022 73.1537 -12.2701 71.3906 -11.7595C66.9827 -10.4775 63.4354 -7.90653 60.8782 -3.98216C59.283 -1.53255 58.202 1.16345 57.4569 3.97728C56.2605 8.5087 55.2529 13.0972 54.0495 17.6251C53.4478 19.8926 52.6327 22.1065 51.8246 24.3097C50.8696 26.9165 49.7711 29.4661 48.8196 32.0764C48.0535 34.1689 47.5042 36.3328 47.1999 38.5539C47.1124 39.2002 47.0075 39.8465 46.906 40.4893H45.3528C45.5102 39.543 45.6851 38.6003 45.846 37.6576C46.3708 34.5867 47.3223 31.6479 48.4208 28.7555Z" fill="url(#paint31_linear_2057_190)"/>
</g>
</g>
<defs>
<linearGradient id="paint0_linear_2057_190" x1="-3.85945" y1="23.7236" x2="139.303" y2="1.26544" gradientUnits="userSpaceOnUse">
<stop stop-color="white" stop-opacity="0"/>
<stop offset="1" stop-color="#B8B8B8"/>
</linearGradient>
<linearGradient id="paint1_linear_2057_190" x1="-3.85945" y1="23.7236" x2="139.303" y2="1.26544" gradientUnits="userSpaceOnUse">
<stop stop-color="white" stop-opacity="0"/>
<stop offset="1" stop-color="#B8B8B8"/>
</linearGradient>
<linearGradient id="paint2_linear_2057_190" x1="-3.85945" y1="23.7236" x2="139.303" y2="1.26544" gradientUnits="userSpaceOnUse">
<stop stop-color="white" stop-opacity="0"/>
<stop offset="1" stop-color="#B8B8B8"/>
</linearGradient>
<linearGradient id="paint3_linear_2057_190" x1="-3.85945" y1="23.7236" x2="139.303" y2="1.26544" gradientUnits="userSpaceOnUse">
<stop stop-color="white" stop-opacity="0"/>
<stop offset="1" stop-color="#B8B8B8"/>
</linearGradient>
<linearGradient id="paint4_linear_2057_190" x1="-3.85945" y1="23.7236" x2="139.303" y2="1.26544" gradientUnits="userSpaceOnUse">
<stop stop-color="white" stop-opacity="0"/>
<stop offset="1" stop-color="#B8B8B8"/>
</linearGradient>
<linearGradient id="paint5_linear_2057_190" x1="-3.85945" y1="23.7236" x2="139.303" y2="1.26544" gradientUnits="userSpaceOnUse">
<stop stop-color="white" stop-opacity="0"/>
<stop offset="1" stop-color="#B8B8B8"/>
</linearGradient>
<linearGradient id="paint6_linear_2057_190" x1="-3.85945" y1="23.7236" x2="139.303" y2="1.26544" gradientUnits="userSpaceOnUse">
<stop stop-color="white" stop-opacity="0"/>
<stop offset="1" stop-color="#B8B8B8"/>
</linearGradient>
<linearGradient id="paint7_linear_2057_190" x1="-3.85945" y1="23.7236" x2="139.303" y2="1.26544" gradientUnits="userSpaceOnUse">
<stop stop-color="white" stop-opacity="0"/>
<stop offset="1" stop-color="#B8B8B8"/>
</linearGradient>
<linearGradient id="paint8_linear_2057_190" x1="-3.85945" y1="23.7236" x2="139.303" y2="1.26544" gradientUnits="userSpaceOnUse">
<stop stop-color="white" stop-opacity="0"/>
<stop offset="1" stop-color="#B8B8B8"/>
</linearGradient>
<linearGradient id="paint9_linear_2057_190" x1="-3.85945" y1="23.7236" x2="139.303" y2="1.26544" gradientUnits="userSpaceOnUse">
<stop stop-color="white" stop-opacity="0"/>
<stop offset="1" stop-color="#B8B8B8"/>
</linearGradient>
<linearGradient id="paint10_linear_2057_190" x1="-3.85945" y1="23.7236" x2="139.303" y2="1.26544" gradientUnits="userSpaceOnUse">
<stop stop-color="white" stop-opacity="0"/>
<stop offset="1" stop-color="#B8B8B8"/>
</linearGradient>
<linearGradient id="paint11_linear_2057_190" x1="-3.85945" y1="23.7236" x2="139.303" y2="1.26544" gradientUnits="userSpaceOnUse">
<stop stop-color="white" stop-opacity="0"/>
<stop offset="1" stop-color="#B8B8B8"/>
</linearGradient>
<linearGradient id="paint12_linear_2057_190" x1="-3.85945" y1="23.7236" x2="139.303" y2="1.26544" gradientUnits="userSpaceOnUse">
<stop stop-color="white" stop-opacity="0"/>
<stop offset="1" stop-color="#B8B8B8"/>
</linearGradient>
<linearGradient id="paint13_linear_2057_190" x1="-3.85945" y1="23.7236" x2="139.303" y2="1.26544" gradientUnits="userSpaceOnUse">
<stop stop-color="white" stop-opacity="0"/>
<stop offset="1" stop-color="#B8B8B8"/>
</linearGradient>
<linearGradient id="paint14_linear_2057_190" x1="-3.85945" y1="23.7236" x2="139.303" y2="1.26544" gradientUnits="userSpaceOnUse">
<stop stop-color="white" stop-opacity="0"/>
<stop offset="1" stop-color="#B8B8B8"/>
</linearGradient>
<linearGradient id="paint15_linear_2057_190" x1="-3.85945" y1="23.7236" x2="139.303" y2="1.26544" gradientUnits="userSpaceOnUse">
<stop stop-color="white" stop-opacity="0"/>
<stop offset="1" stop-color="#B8B8B8"/>
</linearGradient>
<linearGradient id="paint16_linear_2057_190" x1="-3.85945" y1="23.7236" x2="139.303" y2="1.26544" gradientUnits="userSpaceOnUse">
<stop stop-color="white" stop-opacity="0"/>
<stop offset="1" stop-color="#B8B8B8"/>
</linearGradient>
<linearGradient id="paint17_linear_2057_190" x1="-3.85945" y1="23.7236" x2="139.303" y2="1.26544" gradientUnits="userSpaceOnUse">
<stop stop-color="white" stop-opacity="0"/>
<stop offset="1" stop-color="#B8B8B8"/>
</linearGradient>
<linearGradient id="paint18_linear_2057_190" x1="-3.85945" y1="23.7236" x2="139.303" y2="1.26544" gradientUnits="userSpaceOnUse">
<stop stop-color="white" stop-opacity="0"/>
<stop offset="1" stop-color="#B8B8B8"/>
</linearGradient>
<linearGradient id="paint19_linear_2057_190" x1="-3.85945" y1="23.7236" x2="139.303" y2="1.26544" gradientUnits="userSpaceOnUse">
<stop stop-color="white" stop-opacity="0"/>
<stop offset="1" stop-color="#B8B8B8"/>
</linearGradient>
<linearGradient id="paint20_linear_2057_190" x1="-3.85945" y1="23.7236" x2="139.303" y2="1.26544" gradientUnits="userSpaceOnUse">
<stop stop-color="white" stop-opacity="0"/>
<stop offset="1" stop-color="#B8B8B8"/>
</linearGradient>
<linearGradient id="paint21_linear_2057_190" x1="-3.85945" y1="23.7236" x2="139.303" y2="1.26544" gradientUnits="userSpaceOnUse">
<stop stop-color="white" stop-opacity="0"/>
<stop offset="1" stop-color="#B8B8B8"/>
</linearGradient>
<linearGradient id="paint22_linear_2057_190" x1="-3.85945" y1="23.7236" x2="139.303" y2="1.26544" gradientUnits="userSpaceOnUse">
<stop stop-color="white" stop-opacity="0"/>
<stop offset="1" stop-color="#B8B8B8"/>
</linearGradient>
<linearGradient id="paint23_linear_2057_190" x1="-3.85945" y1="23.7236" x2="139.303" y2="1.26544" gradientUnits="userSpaceOnUse">
<stop stop-color="white" stop-opacity="0"/>
<stop offset="1" stop-color="#B8B8B8"/>
</linearGradient>
<linearGradient id="paint24_linear_2057_190" x1="-3.85945" y1="23.7236" x2="139.303" y2="1.26544" gradientUnits="userSpaceOnUse">
<stop stop-color="white" stop-opacity="0"/>
<stop offset="1" stop-color="#B8B8B8"/>
</linearGradient>
<linearGradient id="paint25_linear_2057_190" x1="-3.85945" y1="23.7236" x2="139.303" y2="1.26544" gradientUnits="userSpaceOnUse">
<stop stop-color="white" stop-opacity="0"/>
<stop offset="1" stop-color="#B8B8B8"/>
</linearGradient>
<linearGradient id="paint26_linear_2057_190" x1="-3.85945" y1="23.7236" x2="139.303" y2="1.26544" gradientUnits="userSpaceOnUse">
<stop stop-color="white" stop-opacity="0"/>
<stop offset="1" stop-color="#B8B8B8"/>
</linearGradient>
<linearGradient id="paint27_linear_2057_190" x1="-3.85945" y1="23.7236" x2="139.303" y2="1.26544" gradientUnits="userSpaceOnUse">
<stop stop-color="white" stop-opacity="0"/>
<stop offset="1" stop-color="#B8B8B8"/>
</linearGradient>
<linearGradient id="paint28_linear_2057_190" x1="-3.85945" y1="23.7236" x2="139.303" y2="1.26544" gradientUnits="userSpaceOnUse">
<stop stop-color="white" stop-opacity="0"/>
<stop offset="1" stop-color="#B8B8B8"/>
</linearGradient>
<linearGradient id="paint29_linear_2057_190" x1="-3.85945" y1="23.7236" x2="139.303" y2="1.26544" gradientUnits="userSpaceOnUse">
<stop stop-color="white" stop-opacity="0"/>
<stop offset="1" stop-color="#B8B8B8"/>
</linearGradient>
<linearGradient id="paint30_linear_2057_190" x1="-3.85945" y1="23.7236" x2="139.303" y2="1.26544" gradientUnits="userSpaceOnUse">
<stop stop-color="white" stop-opacity="0"/>
<stop offset="1" stop-color="#B8B8B8"/>
</linearGradient>
<linearGradient id="paint31_linear_2057_190" x1="-3.85945" y1="23.7236" x2="139.303" y2="1.26544" gradientUnits="userSpaceOnUse">
<stop stop-color="white" stop-opacity="0"/>
<stop offset="1" stop-color="#B8B8B8"/>
</linearGradient>
<clipPath id="clip0_2057_190">
<rect x="0.5" width="117" height="22" rx="2.4" fill="white"/>
</clipPath>
</defs>
</svg>
