<svg width="144" height="101" viewBox="0 0 144 101" fill="none" xmlns="http://www.w3.org/2000/svg">
<g clip-path="url(#clip0_2057_151)">
<g opacity="0.21">
<path d="M195.6 5.21636C152.135 -5.16665 141.363 3.41886 153.505 22.0311C163.982 38.0922 122.783 33.5071 91.991 28.6572C61.199 23.8074 50.6645 27.2965 43.9004 40.7491" stroke="#BEBEBE" stroke-width="0.1" stroke-miterlimit="10"/>
<path d="M-67.5008 95.7836C-24.0354 106.167 -13.2637 97.5811 -25.4053 78.9689C-35.8827 62.9078 5.31663 67.4929 36.1086 72.3428C66.9006 77.1926 77.4352 73.7035 84.1992 60.2509" stroke="#BEBEBE" stroke-width="0.1" stroke-miterlimit="10"/>
<path d="M195.116 7.18685C151.552 -3.66629 138.778 3.43045 151.114 21.6182C162.207 37.9737 125.298 34.7322 94.5066 29.8822C63.715 25.0324 53.1801 28.5215 46.416 41.9741" stroke="#BEBEBE" stroke-width="0.1" stroke-miterlimit="10"/>
<path d="M-67.0168 93.8131C-23.4523 104.666 -10.6783 97.5695 -23.0141 79.3818C-34.1076 63.0263 2.80139 66.2678 33.593 71.1178C64.3847 75.9676 74.9195 72.4785 81.6836 59.0259" stroke="#BEBEBE" stroke-width="0.1" stroke-miterlimit="10"/>
<path d="M194.631 9.15719C150.967 -2.16594 136.214 3.44022 148.721 21.2053C160.443 37.8551 127.812 35.9573 97.0203 31.1073C66.2286 26.2575 55.6937 29.7466 48.9297 43.1992" stroke="#BEBEBE" stroke-width="0.1" stroke-miterlimit="10"/>
<path d="M-66.5313 91.8429C-22.8676 103.166 -8.11469 97.5598 -20.6213 79.7948C-32.3429 63.1449 0.287714 65.0427 31.0793 69.8927C61.871 74.7426 72.4059 71.2534 79.1699 57.8008" stroke="#BEBEBE" stroke-width="0.1" stroke-miterlimit="10"/>
<path d="M194.147 11.1276C150.384 -0.665674 133.675 3.4484 146.33 20.7924C158.693 37.736 130.328 37.1823 99.5359 32.3325C68.7443 27.4827 58.2094 30.9718 51.4453 44.4244" stroke="#BEBEBE" stroke-width="0.1" stroke-miterlimit="10"/>
<path d="M-66.0473 89.8724C-22.2848 101.666 -5.57545 97.5516 -18.2305 80.2076C-30.5932 63.264 -2.22792 63.8177 28.5637 68.6675C59.3554 73.5173 69.8902 70.0282 76.6543 56.5756" stroke="#BEBEBE" stroke-width="0.1" stroke-miterlimit="10"/>
<path d="M193.663 13.0977C149.802 0.834418 131.157 3.45431 143.939 20.3791C156.957 37.6154 132.844 38.4071 102.052 33.5572C71.2599 28.7074 60.725 32.1965 53.9609 45.6491" stroke="#BEBEBE" stroke-width="0.1" stroke-miterlimit="10"/>
<path d="M-65.5638 87.9023C-21.702 100.166 -3.05747 97.5457 -15.8397 80.6209C-28.8573 63.3846 -4.74392 62.5929 26.0481 67.4428C56.8397 72.2926 67.3746 68.8035 74.1387 55.3509" stroke="#BEBEBE" stroke-width="0.1" stroke-miterlimit="10"/>
<path d="M193.179 15.0681C149.219 2.3347 128.658 3.45861 141.548 19.9663C155.235 37.4944 135.359 39.6322 104.567 34.7824C73.7755 29.9326 63.2406 33.4217 56.4766 46.8743" stroke="#BEBEBE" stroke-width="0.1" stroke-miterlimit="10"/>
<path d="M-65.0798 85.932C-21.1192 98.6654 -0.558872 97.5415 -13.4485 81.0338C-27.1351 63.5057 -7.25915 61.3678 23.5325 66.2176C54.3241 71.0675 64.859 67.5783 71.6231 54.1257" stroke="#BEBEBE" stroke-width="0.1" stroke-miterlimit="10"/>
<path d="M192.695 17.0387C148.636 3.83535 126.179 3.46117 139.157 19.5535C153.528 37.372 137.874 40.8575 107.083 36.0075C76.2911 31.1577 65.7562 34.6468 58.9922 48.0995" stroke="#BEBEBE" stroke-width="0.1" stroke-miterlimit="10"/>
<path d="M-64.5959 83.9613C-20.5361 97.1646 1.92107 97.5388 -11.0577 81.4465C-25.4287 63.628 -9.77478 60.1425 21.0169 64.9925C51.8085 69.8423 62.3434 66.3532 69.1074 52.9005" stroke="#BEBEBE" stroke-width="0.1" stroke-miterlimit="10"/>
<path d="M192.212 19.0088C148.053 5.33533 123.716 3.4614 136.767 19.1403C151.838 37.2474 140.39 42.0824 109.598 37.2324C78.8068 32.3826 68.2719 35.8717 61.5078 49.3243" stroke="#BEBEBE" stroke-width="0.1" stroke-miterlimit="10"/>
<path d="M-64.1103 81.9912C-19.9513 95.6647 4.38543 97.5386 -8.66495 81.8596C-23.7363 63.7526 -12.2888 58.9176 18.5032 63.7676C49.2948 68.6174 59.8297 65.1283 66.5938 51.6757" stroke="#BEBEBE" stroke-width="0.1" stroke-miterlimit="10"/>
<path d="M191.728 20.9792C147.47 6.83573 121.27 3.45966 134.375 18.7275C150.164 37.1209 142.906 43.3076 112.114 38.4576C81.3224 33.6076 70.7875 37.0969 64.0234 50.5495" stroke="#BEBEBE" stroke-width="0.1" stroke-miterlimit="10"/>
<path d="M-63.6264 80.0208C-19.3685 94.1643 6.8318 97.5403 -6.27378 82.2725C-22.0627 63.8791 -14.8041 57.6924 15.9875 62.5424C46.7792 67.3924 57.3141 63.9031 64.0781 50.4505" stroke="#BEBEBE" stroke-width="0.1" stroke-miterlimit="10"/>
<path d="M191.244 22.9495C146.887 8.33609 118.839 3.45593 131.985 18.3144C148.509 36.9918 145.421 44.5324 114.63 39.6826C83.838 34.8328 73.3031 38.3219 66.5391 51.7745" stroke="#BEBEBE" stroke-width="0.1" stroke-miterlimit="10"/>
<path d="M-63.1444 78.0504C-18.7873 92.6639 9.26093 97.5441 -3.88493 82.6856C-20.4093 64.0082 -17.3217 56.4676 13.47 61.3174C44.2616 66.1672 54.7965 62.6781 61.5606 49.2255" stroke="#BEBEBE" stroke-width="0.1" stroke-miterlimit="10"/>
<path d="M190.758 24.9198C146.302 9.83623 116.42 3.44987 129.592 17.9015C146.871 36.8599 147.935 45.7575 117.143 40.9076C86.3517 36.0578 75.8168 39.5469 69.0527 52.9995" stroke="#BEBEBE" stroke-width="0.1" stroke-miterlimit="10"/>
<path d="M-62.6589 76.0802C-18.2026 91.1638 11.6794 97.5502 -1.49216 83.0986C-18.7713 64.1401 -19.8353 55.2426 10.9563 60.0924C41.7479 64.9423 52.2828 61.4531 59.0469 48.0005" stroke="#BEBEBE" stroke-width="0.1" stroke-miterlimit="10"/>
<path d="M190.277 26.8904C145.721 11.3368 114.019 3.44185 127.203 17.4888C145.257 36.7249 150.453 46.9828 119.661 42.1328C88.8689 37.2828 78.3344 40.7721 71.5703 54.2247" stroke="#BEBEBE" stroke-width="0.1" stroke-miterlimit="10"/>
<path d="M-62.1753 74.1097C-17.6198 89.6633 14.0826 97.5582 0.898659 83.5113C-17.1559 64.2752 -22.3513 54.0173 8.44068 58.8672C39.2327 63.7172 49.7672 60.2279 56.5313 46.7753" stroke="#BEBEBE" stroke-width="0.1" stroke-miterlimit="10"/>
<path d="M189.791 28.8606C145.136 12.8369 111.625 3.43126 124.81 17.0756C143.662 36.5856 152.966 48.2077 122.175 43.3577C91.3829 38.5079 80.848 41.997 74.084 55.4496" stroke="#BEBEBE" stroke-width="0.1" stroke-miterlimit="10"/>
<path d="M-61.6909 72.1394C-17.0366 88.1631 16.4741 97.5688 3.28984 83.9244C-15.562 64.4144 -24.8666 52.7924 5.92505 57.6423C36.7167 62.4922 47.2516 59.003 54.0156 45.5504" stroke="#BEBEBE" stroke-width="0.1" stroke-miterlimit="10"/>
<path d="M189.307 30.831C144.553 14.3373 109.246 3.41851 122.419 16.6627C142.091 36.4422 155.482 49.4328 124.69 44.5828C93.8985 39.733 83.3637 43.2221 76.5996 56.6747" stroke="#BEBEBE" stroke-width="0.1" stroke-miterlimit="10"/>
<path d="M-61.2074 70.1691C-16.4539 86.6628 18.8533 97.5815 5.68064 84.3373C-13.9917 64.5578 -27.3826 51.5672 3.40943 56.4172C34.2011 61.2671 44.7359 57.7779 51.5 44.3253" stroke="#BEBEBE" stroke-width="0.1" stroke-miterlimit="10"/>
<path d="M188.823 32.8013C143.971 15.8375 106.878 3.40325 120.028 16.2497C140.546 36.2939 157.998 50.6577 127.206 45.8078C96.4142 40.958 85.8793 44.4471 79.1152 57.8998" stroke="#BEBEBE" stroke-width="0.1" stroke-miterlimit="10"/>
<path d="M-60.7234 68.1987C-15.8711 85.1625 21.2218 97.5968 8.07145 84.7504C-12.4467 64.7061 -29.8982 50.3424 0.893808 55.1922C31.6854 60.042 42.2203 56.5529 48.9844 43.1003" stroke="#BEBEBE" stroke-width="0.1" stroke-miterlimit="10"/>
<path d="M188.337 34.7719C143.386 17.3381 104.517 3.38576 117.635 15.837C139.026 36.1405 160.511 51.883 129.719 47.0332C98.9279 42.1834 88.393 45.6725 81.6289 59.1251" stroke="#BEBEBE" stroke-width="0.1" stroke-miterlimit="10"/>
<path d="M-60.2375 66.2282C-15.2864 83.662 23.5825 97.6143 10.4646 85.1631C-10.9259 64.8595 -32.4115 49.117 -1.61988 53.9669C29.1718 58.8167 39.7066 55.3276 46.4707 41.875" stroke="#BEBEBE" stroke-width="0.1" stroke-miterlimit="10"/>
<path d="M187.855 36.7418C142.805 18.8381 102.17 3.36512 115.246 15.4237C137.538 35.9803 163.029 53.1077 132.237 48.2578C101.445 43.4079 90.9105 46.8971 84.1465 60.3497" stroke="#BEBEBE" stroke-width="0.1" stroke-miterlimit="10"/>
<path d="M-59.7559 64.2582C-14.7055 82.162 25.9299 97.6349 12.8534 85.5764C-9.43809 65.0198 -34.9291 47.8923 -4.13745 52.7423C26.6542 57.5921 37.1891 54.103 43.9531 40.6504" stroke="#BEBEBE" stroke-width="0.1" stroke-miterlimit="10"/>
</g>
</g>
<defs>
<clipPath id="clip0_2057_151">
<rect width="144" height="99.5" fill="white" transform="translate(0 0.75)"/>
</clipPath>
</defs>
</svg>
